M48
; DRILL file {KiCad 9.0.0} date 2025-07-18T15:04:11-0500
; FORMAT={-:-/ absolute / metric / decimal}
; #@! TF.CreationDate,2025-07-18T15:04:11-05:00
; #@! TF.GenerationSoftware,Kicad,Pcbnew,9.0.0
; #@! TF.FileFunction,Plated,1,4,PTH
FMAT,2
METRIC
; #@! TA.AperFunction,Plated,PTH,ViaDrill
T1C0.400
; #@! TA.AperFunction,Plated,PTH,ComponentDrill
T2C0.700
; #@! TA.AperFunction,Plated,PTH,ComponentDrill
T3C0.750
; #@! TA.AperFunction,Plated,PTH,ComponentDrill
T4C0.950
; #@! TA.AperFunction,Plated,PTH,ComponentDrill
T5C1.000
; #@! TA.AperFunction,Plated,PTH,ComponentDrill
T6C1.500
%
G90
G05
T1
X103.124Y-113.284
X103.124Y-116.84
X103.124Y-121.412
X103.124Y-125.476
X103.124Y-130.302
X103.124Y-134.112
X103.124Y-139.192
X103.124Y-142.748
X103.124Y-147.32
X103.378Y-108.458
X114.554Y-108.458
X114.554Y-113.284
X114.554Y-117.094
X114.554Y-121.666
X114.554Y-125.73
X114.554Y-130.302
X114.554Y-134.366
X114.554Y-139.192
X114.554Y-142.748
X114.554Y-147.574
X114.554Y-150.876
X127.0Y-150.876
X129.54Y-110.744
X129.54Y-113.284
X129.54Y-119.126
X129.54Y-121.92
X129.54Y-127.889
X129.54Y-130.556
X129.54Y-136.144
X129.54Y-139.192
X129.54Y-145.288
X129.54Y-147.828
X135.225Y-105.664
X138.225Y-105.664
X143.775Y-103.0
X144.25Y-101.616
X144.25Y-104.5
X144.399Y-110.109
X144.399Y-113.157
X144.399Y-144.78
X144.399Y-147.828
X144.526Y-119.126
X144.526Y-121.666
X144.526Y-127.381
X144.526Y-130.048
X144.526Y-136.144
X144.526Y-139.192
X147.0Y-103.0
X147.25Y-104.5
X149.606Y-110.744
X149.606Y-119.126
X149.606Y-128.016
X149.606Y-136.398
X149.606Y-144.78
X149.75Y-104.5
X150.622Y-149.733
X151.963Y-103.0
X152.5Y-104.5
X153.25Y-101.5
X155.25Y-103.0
X155.25Y-104.4
X155.702Y-149.733
X156.75Y-103.0
X157.0Y-126.5
X157.013Y-127.75
X157.25Y-104.4
X157.738Y-130.25
X158.415Y-137.94
X158.44Y-136.42
X158.5Y-131.56
X159.286Y-120.25
X160.0Y-133.75
X160.0Y-140.45
X160.528Y-149.733
X161.036Y-144.78
X161.08Y-146.902
X161.5Y-125.25
X162.0Y-105.5
X162.306Y-120.142
X162.854Y-140.25
X163.08Y-141.225
X163.195Y-147.447
X163.322Y-142.24
X164.12Y-144.78
X164.75Y-133.75
X164.86Y-123.99
X165.5Y-103.5
X165.5Y-105.5
X165.735Y-149.733
X165.75Y-117.75
X165.75Y-122.25
X165.75Y-137.15
X167.28Y-128.716
X167.386Y-127.254
X167.386Y-132.08
X167.61Y-139.255
X167.65Y-144.5
X168.275Y-147.447
X168.656Y-111.76
X168.75Y-103.5
X168.75Y-105.75
X168.75Y-133.75
X169.0Y-136.75
X169.0Y-138.0
X169.0Y-140.5
X169.0Y-142.75
X169.0Y-144.75
X170.18Y-110.236
X170.18Y-117.602
X170.18Y-129.794
X170.815Y-149.733
X171.0Y-137.25
X171.0Y-144.75
X171.196Y-147.574
X171.5Y-103.5
X171.5Y-105.75
X171.75Y-134.0
X172.0Y-137.25
X174.0Y-104.25
X174.0Y-106.5
X174.0Y-133.75
X174.0Y-137.25
X175.5Y-120.75
X175.514Y-117.602
X175.514Y-129.794
X177.546Y-137.668
X177.546Y-140.97
X177.546Y-144.75
X177.75Y-131.5
X178.054Y-109.982
X178.5Y-117.5
X178.5Y-155.0
X179.324Y-106.553
X179.324Y-110.998
X179.75Y-123.5
X179.75Y-126.5
X179.75Y-129.75
X179.75Y-133.5
X181.0Y-132.25
X181.102Y-108.077
X182.91Y-128.205
X182.96Y-112.395
X183.088Y-109.57
X183.088Y-115.22
X183.088Y-125.38
X183.088Y-131.03
T2
X148.295Y-133.732
X148.295Y-138.812
X148.305Y-142.295
X148.305Y-147.375
X148.355Y-116.787
X148.355Y-121.867
X148.355Y-125.4
X148.355Y-130.48
X148.405Y-108.045
X148.405Y-113.125
X150.495Y-133.732
X150.495Y-138.812
X150.505Y-142.295
X150.505Y-147.375
X150.555Y-116.787
X150.555Y-121.867
X150.555Y-125.4
X150.555Y-130.48
X150.605Y-108.045
X150.605Y-113.125
X152.695Y-133.732
X152.695Y-138.812
X152.705Y-142.295
X152.705Y-147.375
X152.755Y-116.787
X152.755Y-121.867
X152.755Y-125.4
X152.755Y-130.48
X152.805Y-108.045
X152.805Y-113.125
X155.895Y-133.732
X155.895Y-138.812
X155.905Y-142.295
X155.905Y-147.375
X155.955Y-116.787
X155.955Y-121.867
X155.955Y-125.4
X155.955Y-130.48
X156.005Y-108.045
X156.005Y-113.125
X159.585Y-102.985
X159.585Y-108.065
X161.785Y-102.985
X161.785Y-108.065
X163.985Y-102.985
X163.985Y-108.065
X167.185Y-102.985
X167.185Y-108.065
T3
X172.0Y-141.05
X174.0Y-141.05
T4
X176.203Y-103.713
X176.203Y-106.213
X176.203Y-108.713
T5
X128.92Y-151.33
X128.92Y-153.87
X130.149Y-104.135
X131.46Y-151.33
X131.46Y-153.87
X132.649Y-104.135
X134.0Y-151.33
X134.0Y-153.87
X136.54Y-151.33
X136.54Y-153.87
X139.08Y-151.33
X139.08Y-153.87
X141.62Y-151.33
X141.62Y-153.87
X144.16Y-151.33
X144.16Y-153.87
X146.7Y-151.33
X146.7Y-153.87
X149.24Y-151.33
X149.24Y-153.87
X151.78Y-151.33
X151.78Y-153.87
X154.32Y-151.33
X154.32Y-153.87
X156.86Y-151.33
X156.86Y-153.87
X159.4Y-151.33
X159.4Y-153.87
X161.94Y-151.33
X161.94Y-153.87
X164.48Y-151.33
X164.48Y-153.87
X167.02Y-151.33
X167.02Y-153.87
X167.485Y-114.615
X167.485Y-120.615
X169.56Y-151.33
X169.56Y-153.87
X170.075Y-124.345
X170.075Y-135.345
X172.1Y-151.33
X172.1Y-153.87
X174.64Y-151.33
X174.64Y-153.87
X176.075Y-124.345
X176.075Y-135.345
X177.18Y-151.33
X177.18Y-153.87
X178.485Y-114.615
X178.485Y-120.615
X180.2Y-135.754
X180.2Y-138.294
X180.2Y-140.834
X180.2Y-143.374
X180.2Y-145.914
X182.74Y-135.754
X182.74Y-138.294
X182.74Y-140.834
X182.74Y-143.374
X182.74Y-145.914
T6
X108.975Y-134.318
X108.975Y-138.888
X108.985Y-142.929
X108.985Y-147.499
X109.035Y-117.021
X109.035Y-121.591
X109.035Y-125.682
X109.035Y-130.252
X109.105Y-108.42
X109.105Y-112.99
X123.935Y-134.325
X123.935Y-138.895
X123.945Y-142.929
X123.945Y-147.499
X123.985Y-108.42
X123.985Y-112.99
X123.995Y-117.044
X123.995Y-121.614
X123.995Y-125.697
X123.995Y-130.267
X138.815Y-134.273
X138.815Y-138.843
X138.825Y-142.869
X138.825Y-147.439
X138.875Y-117.006
X138.875Y-121.576
X138.875Y-125.652
X138.875Y-130.222
X138.945Y-108.42
X138.945Y-112.99
M30
