G04 #@! TF.GenerationSoftware,KiCad,Pcbnew,9.0.0*
G04 #@! TF.CreationDate,2025-07-18T15:04:11-05:00*
G04 #@! TF.ProjectId,txfilters,74786669-6c74-4657-9273-2e6b69636164,rev?*
G04 #@! TF.SameCoordinates,Original*
G04 #@! TF.FileFunction,Paste,Top*
G04 #@! TF.FilePolarity,Positive*
%FSLAX46Y46*%
G04 Gerber Fmt 4.6, Leading zero omitted, Abs format (unit mm)*
G04 Created by KiCad (PCBNEW 9.0.0) date 2025-07-18 15:04:11*
%MOMM*%
%LPD*%
G01*
G04 APERTURE LIST*
G04 Aperture macros list*
%AMRoundRect*
0 Rectangle with rounded corners*
0 $1 Rounding radius*
0 $2 $3 $4 $5 $6 $7 $8 $9 X,Y pos of 4 corners*
0 Add a 4 corners polygon primitive as box body*
4,1,4,$2,$3,$4,$5,$6,$7,$8,$9,$2,$3,0*
0 Add four circle primitives for the rounded corners*
1,1,$1+$1,$2,$3*
1,1,$1+$1,$4,$5*
1,1,$1+$1,$6,$7*
1,1,$1+$1,$8,$9*
0 Add four rect primitives between the rounded corners*
20,1,$1+$1,$2,$3,$4,$5,0*
20,1,$1+$1,$4,$5,$6,$7,0*
20,1,$1+$1,$6,$7,$8,$9,0*
20,1,$1+$1,$8,$9,$2,$3,0*%
G04 Aperture macros list end*
%ADD10RoundRect,0.225000X0.250000X-0.225000X0.250000X0.225000X-0.250000X0.225000X-0.250000X-0.225000X0*%
%ADD11RoundRect,0.100000X-0.400000X-0.400000X0.400000X-0.400000X0.400000X0.400000X-0.400000X0.400000X0*%
%ADD12RoundRect,0.105000X-0.420000X-0.995000X0.420000X-0.995000X0.420000X0.995000X-0.420000X0.995000X0*%
%ADD13RoundRect,0.150000X0.825000X0.150000X-0.825000X0.150000X-0.825000X-0.150000X0.825000X-0.150000X0*%
%ADD14RoundRect,0.225000X-0.225000X-0.250000X0.225000X-0.250000X0.225000X0.250000X-0.225000X0.250000X0*%
%ADD15RoundRect,0.200000X-0.275000X0.200000X-0.275000X-0.200000X0.275000X-0.200000X0.275000X0.200000X0*%
%ADD16RoundRect,0.225000X0.225000X0.250000X-0.225000X0.250000X-0.225000X-0.250000X0.225000X-0.250000X0*%
%ADD17RoundRect,0.250000X-1.137500X-0.550000X1.137500X-0.550000X1.137500X0.550000X-1.137500X0.550000X0*%
%ADD18RoundRect,0.225000X-0.250000X0.225000X-0.250000X-0.225000X0.250000X-0.225000X0.250000X0.225000X0*%
%ADD19RoundRect,0.200000X0.200000X0.275000X-0.200000X0.275000X-0.200000X-0.275000X0.200000X-0.275000X0*%
%ADD20RoundRect,0.218750X0.218750X0.256250X-0.218750X0.256250X-0.218750X-0.256250X0.218750X-0.256250X0*%
%ADD21RoundRect,0.225000X-0.375000X0.225000X-0.375000X-0.225000X0.375000X-0.225000X0.375000X0.225000X0*%
%ADD22RoundRect,0.200000X-0.200000X-0.275000X0.200000X-0.275000X0.200000X0.275000X-0.200000X0.275000X0*%
%ADD23R,1.100000X0.250000*%
%ADD24RoundRect,0.218750X-0.218750X-0.256250X0.218750X-0.256250X0.218750X0.256250X-0.218750X0.256250X0*%
%ADD25RoundRect,0.250000X0.255000X-0.255000X0.255000X0.255000X-0.255000X0.255000X-0.255000X-0.255000X0*%
%ADD26RoundRect,0.062500X0.062500X-0.350000X0.062500X0.350000X-0.062500X0.350000X-0.062500X-0.350000X0*%
%ADD27RoundRect,0.062500X0.350000X-0.062500X0.350000X0.062500X-0.350000X0.062500X-0.350000X-0.062500X0*%
G04 APERTURE END LIST*
D10*
G04 #@! TO.C,C27*
X170077000Y-111852000D03*
X170077000Y-110302000D03*
G04 #@! TD*
D11*
G04 #@! TO.C,J8*
X136750000Y-102500000D03*
D12*
X138225000Y-104000000D03*
D11*
X136750000Y-105500000D03*
D12*
X135275000Y-104000000D03*
G04 #@! TD*
D13*
G04 #@! TO.C,U3*
X164830000Y-132830000D03*
X164830000Y-131560000D03*
X164830000Y-130290000D03*
X164830000Y-129020000D03*
X164830000Y-127750000D03*
X164830000Y-126480000D03*
X164830000Y-125210000D03*
X164830000Y-123940000D03*
X159880000Y-123940000D03*
X159880000Y-125210000D03*
X159880000Y-126480000D03*
X159880000Y-127750000D03*
X159880000Y-129020000D03*
X159880000Y-130290000D03*
X159880000Y-131560000D03*
X159880000Y-132830000D03*
G04 #@! TD*
D14*
G04 #@! TO.C,C3*
X162630000Y-144775000D03*
X164180000Y-144775000D03*
G04 #@! TD*
D15*
G04 #@! TO.C,R11*
X177500000Y-146675000D03*
X177500000Y-148325000D03*
G04 #@! TD*
D16*
G04 #@! TO.C,C47*
X156800000Y-103000000D03*
X155250000Y-103000000D03*
G04 #@! TD*
G04 #@! TO.C,C48*
X150275000Y-103000000D03*
X148725000Y-103000000D03*
G04 #@! TD*
D17*
G04 #@! TO.C,C6*
X159286500Y-120163000D03*
X163411500Y-120163000D03*
G04 #@! TD*
D18*
G04 #@! TO.C,C26*
X167285000Y-127224000D03*
X167285000Y-128774000D03*
G04 #@! TD*
D15*
G04 #@! TO.C,R10*
X165750000Y-135500000D03*
X165750000Y-137150000D03*
G04 #@! TD*
G04 #@! TO.C,R2*
X167285000Y-130348000D03*
X167285000Y-131998000D03*
G04 #@! TD*
G04 #@! TO.C,R3*
X166023000Y-140929000D03*
X166023000Y-142579000D03*
G04 #@! TD*
D19*
G04 #@! TO.C,R4*
X167610000Y-139255000D03*
X165960000Y-139255000D03*
G04 #@! TD*
D20*
G04 #@! TO.C,L19*
X147000000Y-103000000D03*
X145425000Y-103000000D03*
G04 #@! TD*
D16*
G04 #@! TO.C,C49*
X143775000Y-103000000D03*
X142225000Y-103000000D03*
G04 #@! TD*
D21*
G04 #@! TO.C,D4*
X175250000Y-144950000D03*
X175250000Y-148250000D03*
G04 #@! TD*
D22*
G04 #@! TO.C,R9*
X166000000Y-144500000D03*
X167650000Y-144500000D03*
G04 #@! TD*
D19*
G04 #@! TO.C,R1*
X161080000Y-144773000D03*
X159430000Y-144773000D03*
G04 #@! TD*
D23*
G04 #@! TO.C,U1*
X164405000Y-143175000D03*
X164405000Y-142675000D03*
X164405000Y-142175000D03*
X164405000Y-141675000D03*
X164405000Y-141175000D03*
X160105000Y-141175000D03*
X160105000Y-141675000D03*
X160105000Y-142175000D03*
X160105000Y-142675000D03*
X160105000Y-143175000D03*
G04 #@! TD*
D24*
G04 #@! TO.C,L18*
X151962500Y-103000000D03*
X153537500Y-103000000D03*
G04 #@! TD*
D25*
G04 #@! TO.C,U2*
X161600000Y-138000000D03*
X162850000Y-138000000D03*
X161600000Y-136750000D03*
X162850000Y-136750000D03*
D26*
X161225000Y-139312500D03*
X161725000Y-139312500D03*
X162225000Y-139312500D03*
X162725000Y-139312500D03*
X163225000Y-139312500D03*
D27*
X164162500Y-138375000D03*
X164162500Y-137875000D03*
X164162500Y-137375000D03*
X164162500Y-136875000D03*
X164162500Y-136375000D03*
D26*
X163225000Y-135437500D03*
X162725000Y-135437500D03*
X162225000Y-135437500D03*
X161725000Y-135437500D03*
X161225000Y-135437500D03*
D27*
X160287500Y-136375000D03*
X160287500Y-136875000D03*
X160287500Y-137375000D03*
X160287500Y-137875000D03*
X160287500Y-138375000D03*
G04 #@! TD*
D19*
G04 #@! TO.C,R7*
X168596000Y-111839000D03*
X166946000Y-111839000D03*
G04 #@! TD*
D10*
G04 #@! TO.C,C2*
X158415000Y-137940000D03*
X158415000Y-136390000D03*
G04 #@! TD*
D19*
G04 #@! TO.C,R8*
X161080000Y-146902000D03*
X159430000Y-146902000D03*
G04 #@! TD*
M02*
