G04 #@! TF.GenerationSoftware,KiCad,Pcbnew,9.0.0*
G04 #@! TF.CreationDate,2025-07-18T15:04:11-05:00*
G04 #@! TF.ProjectId,txfilters,74786669-6c74-4657-9273-2e6b69636164,rev?*
G04 #@! TF.SameCoordinates,Original*
G04 #@! TF.FileFunction,Other,User*
%FSLAX46Y46*%
G04 Gerber Fmt 4.6, Leading zero omitted, Abs format (unit mm)*
G04 Created by KiCad (PCBNEW 9.0.0) date 2025-07-18 15:04:11*
%MOMM*%
%LPD*%
G01*
G04 APERTURE LIST*
%ADD10C,0.050000*%
G04 APERTURE END LIST*
D10*
G04 #@! TO.C,K6*
X146855000Y-148325000D02*
X146855000Y-141345000D01*
X146855000Y-148325000D02*
X157355000Y-148325000D01*
X157355000Y-141345000D02*
X146855000Y-141345000D01*
X157355000Y-141345000D02*
X157355000Y-148325000D01*
G04 #@! TO.C,L9*
X101795000Y-123932500D02*
X101795000Y-132002500D01*
X101795000Y-132002500D02*
X116275000Y-132002500D01*
X116275000Y-123932500D02*
X101795000Y-123932500D01*
X116275000Y-132002500D02*
X116275000Y-123932500D01*
G04 #@! TO.C,C27*
X169347000Y-109597000D02*
X170807000Y-109597000D01*
X169347000Y-112557000D02*
X169347000Y-109597000D01*
X170807000Y-109597000D02*
X170807000Y-112557000D01*
X170807000Y-112557000D02*
X169347000Y-112557000D01*
G04 #@! TO.C,H1*
X107030000Y-103630000D02*
G75*
G02*
X101130000Y-103630000I-2950000J0D01*
G01*
X101130000Y-103630000D02*
G75*
G02*
X107030000Y-103630000I2950000J0D01*
G01*
G04 #@! TO.C,J8*
X134250000Y-101600000D02*
X134250000Y-106600000D01*
X134250000Y-106600000D02*
X139250000Y-106600000D01*
X139250000Y-101600000D02*
X134250000Y-101600000D01*
X139250000Y-106600000D02*
X139250000Y-101600000D01*
G04 #@! TO.C,L1*
X131705000Y-106670000D02*
X131705000Y-114740000D01*
X131705000Y-114740000D02*
X146185000Y-114740000D01*
X146185000Y-106670000D02*
X131705000Y-106670000D01*
X146185000Y-114740000D02*
X146185000Y-106670000D01*
G04 #@! TO.C,K1*
X146955000Y-114075000D02*
X146955000Y-107095000D01*
X146955000Y-114075000D02*
X157455000Y-114075000D01*
X157455000Y-107095000D02*
X146955000Y-107095000D01*
X157455000Y-107095000D02*
X157455000Y-114075000D01*
G04 #@! TO.C,L17*
X166235000Y-112865000D02*
X166235000Y-122365000D01*
X166235000Y-112865000D02*
X179735000Y-112865000D01*
X179735000Y-122365000D02*
X166235000Y-122365000D01*
X179735000Y-122365000D02*
X179735000Y-112865000D01*
G04 #@! TO.C,L2*
X116745000Y-106670000D02*
X116745000Y-114740000D01*
X116745000Y-114740000D02*
X131225000Y-114740000D01*
X131225000Y-106670000D02*
X116745000Y-106670000D01*
X131225000Y-114740000D02*
X131225000Y-106670000D01*
G04 #@! TO.C,L3*
X101865000Y-106670000D02*
X101865000Y-114740000D01*
X101865000Y-114740000D02*
X116345000Y-114740000D01*
X116345000Y-106670000D02*
X101865000Y-106670000D01*
X116345000Y-114740000D02*
X116345000Y-106670000D01*
G04 #@! TO.C,K5*
X146845000Y-139762500D02*
X146845000Y-132782500D01*
X146845000Y-139762500D02*
X157345000Y-139762500D01*
X157345000Y-132782500D02*
X146845000Y-132782500D01*
X157345000Y-132782500D02*
X157345000Y-139762500D01*
G04 #@! TO.C,U3*
X158655000Y-123185000D02*
X158655000Y-133585000D01*
X158655000Y-133585000D02*
X166055000Y-133585000D01*
X166055000Y-123185000D02*
X158655000Y-123185000D01*
X166055000Y-133585000D02*
X166055000Y-123185000D01*
G04 #@! TO.C,C3*
X161925000Y-144045000D02*
X164885000Y-144045000D01*
X161925000Y-145505000D02*
X161925000Y-144045000D01*
X164885000Y-144045000D02*
X164885000Y-145505000D01*
X164885000Y-145505000D02*
X161925000Y-145505000D01*
G04 #@! TO.C,R11*
X176770000Y-146020000D02*
X178230000Y-146020000D01*
X176770000Y-148980000D02*
X176770000Y-146020000D01*
X178230000Y-146020000D02*
X178230000Y-148980000D01*
X178230000Y-148980000D02*
X176770000Y-148980000D01*
G04 #@! TO.C,H6*
X185030000Y-152630000D02*
G75*
G02*
X179130000Y-152630000I-2950000J0D01*
G01*
X179130000Y-152630000D02*
G75*
G02*
X185030000Y-152630000I2950000J0D01*
G01*
G04 #@! TO.C,C47*
X154545000Y-102270000D02*
X157505000Y-102270000D01*
X154545000Y-103730000D02*
X154545000Y-102270000D01*
X157505000Y-102270000D02*
X157505000Y-103730000D01*
X157505000Y-103730000D02*
X154545000Y-103730000D01*
G04 #@! TO.C,C48*
X148020000Y-102270000D02*
X150980000Y-102270000D01*
X148020000Y-103730000D02*
X148020000Y-102270000D01*
X150980000Y-102270000D02*
X150980000Y-103730000D01*
X150980000Y-103730000D02*
X148020000Y-103730000D01*
G04 #@! TO.C,H2*
X127030000Y-103630000D02*
G75*
G02*
X121130000Y-103630000I-2950000J0D01*
G01*
X121130000Y-103630000D02*
G75*
G02*
X127030000Y-103630000I2950000J0D01*
G01*
G04 #@! TO.C,J3*
X180737500Y-132205000D02*
X180737500Y-124205000D01*
X185937500Y-124205000D02*
X180737500Y-124205000D01*
X185937500Y-124525000D02*
X185937500Y-124205000D01*
X185937500Y-124525000D02*
X195457500Y-124525000D01*
X185937500Y-131885000D02*
X185937500Y-132205000D01*
X185937500Y-132205000D02*
X180737500Y-132205000D01*
X195457500Y-124525000D02*
X195457500Y-131885000D01*
X195457500Y-131885000D02*
X185937500Y-131885000D01*
G04 #@! TO.C,L6*
X101795000Y-115271250D02*
X101795000Y-123341250D01*
X101795000Y-123341250D02*
X116275000Y-123341250D01*
X116275000Y-115271250D02*
X101795000Y-115271250D01*
X116275000Y-123341250D02*
X116275000Y-115271250D01*
G04 #@! TO.C,C6*
X157649000Y-119113000D02*
X157649000Y-121213000D01*
X157649000Y-121213000D02*
X158449000Y-121213000D01*
X158449000Y-118413000D02*
X158449000Y-119113000D01*
X158449000Y-118413000D02*
X159599000Y-117263000D01*
X158449000Y-119113000D02*
X157649000Y-119113000D01*
X158449000Y-121213000D02*
X158449000Y-121913000D01*
X158449000Y-121913000D02*
X159599000Y-123063000D01*
X159599000Y-117263000D02*
X164249000Y-117263000D01*
X159599000Y-123063000D02*
X164249000Y-123063000D01*
X164249000Y-117263000D02*
X164249000Y-119113000D01*
X164249000Y-119113000D02*
X165049000Y-119113000D01*
X164249000Y-121213000D02*
X164249000Y-123063000D01*
X165049000Y-119113000D02*
X165049000Y-121213000D01*
X165049000Y-121213000D02*
X164249000Y-121213000D01*
G04 #@! TO.C,C26*
X166555000Y-126519000D02*
X168015000Y-126519000D01*
X166555000Y-129479000D02*
X166555000Y-126519000D01*
X168015000Y-126519000D02*
X168015000Y-129479000D01*
X168015000Y-129479000D02*
X166555000Y-129479000D01*
G04 #@! TO.C,L15*
X101745000Y-141179000D02*
X101745000Y-149249000D01*
X101745000Y-149249000D02*
X116225000Y-149249000D01*
X116225000Y-141179000D02*
X101745000Y-141179000D01*
X116225000Y-149249000D02*
X116225000Y-141179000D01*
G04 #@! TO.C,H4*
X107030000Y-152630000D02*
G75*
G02*
X101130000Y-152630000I-2950000J0D01*
G01*
X101130000Y-152630000D02*
G75*
G02*
X107030000Y-152630000I2950000J0D01*
G01*
G04 #@! TO.C,H5*
X127030000Y-152630000D02*
G75*
G02*
X121130000Y-152630000I-2950000J0D01*
G01*
X121130000Y-152630000D02*
G75*
G02*
X127030000Y-152630000I2950000J0D01*
G01*
G04 #@! TO.C,R10*
X165020000Y-134845000D02*
X166480000Y-134845000D01*
X165020000Y-137805000D02*
X165020000Y-134845000D01*
X166480000Y-134845000D02*
X166480000Y-137805000D01*
X166480000Y-137805000D02*
X165020000Y-137805000D01*
G04 #@! TO.C,L16*
X168325000Y-136595000D02*
X168325000Y-123095000D01*
X168325000Y-136595000D02*
X177825000Y-136595000D01*
X177825000Y-123095000D02*
X168325000Y-123095000D01*
X177825000Y-123095000D02*
X177825000Y-136595000D01*
G04 #@! TO.C,R2*
X166555000Y-129693000D02*
X168015000Y-129693000D01*
X166555000Y-132653000D02*
X166555000Y-129693000D01*
X168015000Y-129693000D02*
X168015000Y-132653000D01*
X168015000Y-132653000D02*
X166555000Y-132653000D01*
G04 #@! TO.C,J7*
X169550000Y-137750000D02*
X169550000Y-143250000D01*
X169550000Y-143250000D02*
X176450000Y-143250000D01*
X176450000Y-137750000D02*
X169550000Y-137750000D01*
X176450000Y-143250000D02*
X176450000Y-137750000D01*
G04 #@! TO.C,H3*
X185030000Y-103630000D02*
G75*
G02*
X179130000Y-103630000I-2950000J0D01*
G01*
X179130000Y-103630000D02*
G75*
G02*
X185030000Y-103630000I2950000J0D01*
G01*
G04 #@! TO.C,R3*
X165293000Y-140274000D02*
X166753000Y-140274000D01*
X165293000Y-143234000D02*
X165293000Y-140274000D01*
X166753000Y-140274000D02*
X166753000Y-143234000D01*
X166753000Y-143234000D02*
X165293000Y-143234000D01*
G04 #@! TO.C,J2*
X180737500Y-116395000D02*
X180737500Y-108395000D01*
X185937500Y-108395000D02*
X180737500Y-108395000D01*
X185937500Y-108715000D02*
X185937500Y-108395000D01*
X185937500Y-108715000D02*
X195457500Y-108715000D01*
X185937500Y-116075000D02*
X185937500Y-116395000D01*
X185937500Y-116395000D02*
X180737500Y-116395000D01*
X195457500Y-108715000D02*
X195457500Y-116075000D01*
X195457500Y-116075000D02*
X185937500Y-116075000D01*
G04 #@! TO.C,R4*
X165305000Y-138525000D02*
X168265000Y-138525000D01*
X165305000Y-139985000D02*
X165305000Y-138525000D01*
X168265000Y-138525000D02*
X168265000Y-139985000D01*
X168265000Y-139985000D02*
X165305000Y-139985000D01*
G04 #@! TO.C,L11*
X116695000Y-132575250D02*
X116695000Y-140645250D01*
X116695000Y-140645250D02*
X131175000Y-140645250D01*
X131175000Y-132575250D02*
X116695000Y-132575250D01*
X131175000Y-140645250D02*
X131175000Y-132575250D01*
G04 #@! TO.C,L7*
X131635000Y-123902500D02*
X131635000Y-131972500D01*
X131635000Y-131972500D02*
X146115000Y-131972500D01*
X146115000Y-123902500D02*
X131635000Y-123902500D01*
X146115000Y-131972500D02*
X146115000Y-123902500D01*
G04 #@! TO.C,J6*
X172303000Y-100763000D02*
X172303000Y-111663000D01*
X172303000Y-111663000D02*
X179053000Y-111663000D01*
X179053000Y-100763000D02*
X172303000Y-100763000D01*
X179053000Y-111663000D02*
X179053000Y-100763000D01*
G04 #@! TO.C,L19*
X144732500Y-102270000D02*
X147692500Y-102270000D01*
X144732500Y-103730000D02*
X144732500Y-102270000D01*
X147692500Y-102270000D02*
X147692500Y-103730000D01*
X147692500Y-103730000D02*
X144732500Y-103730000D01*
G04 #@! TO.C,K2*
X158135000Y-109015000D02*
X158135000Y-102035000D01*
X158135000Y-109015000D02*
X168635000Y-109015000D01*
X168635000Y-102035000D02*
X158135000Y-102035000D01*
X168635000Y-102035000D02*
X168635000Y-109015000D01*
G04 #@! TO.C,C49*
X141520000Y-102270000D02*
X144480000Y-102270000D01*
X141520000Y-103730000D02*
X141520000Y-102270000D01*
X144480000Y-102270000D02*
X144480000Y-103730000D01*
X144480000Y-103730000D02*
X141520000Y-103730000D01*
G04 #@! TO.C,D4*
X174100000Y-148950000D02*
X174100000Y-144250000D01*
X176400000Y-144250000D02*
X174100000Y-144250000D01*
X176400000Y-144250000D02*
X176400000Y-148950000D01*
X176400000Y-148950000D02*
X174100000Y-148950000D01*
G04 #@! TO.C,L4*
X131635000Y-115256250D02*
X131635000Y-123326250D01*
X131635000Y-123326250D02*
X146115000Y-123326250D01*
X146115000Y-115256250D02*
X131635000Y-115256250D01*
X146115000Y-123326250D02*
X146115000Y-115256250D01*
G04 #@! TO.C,L8*
X116755000Y-123947500D02*
X116755000Y-132017500D01*
X116755000Y-132017500D02*
X131235000Y-132017500D01*
X131235000Y-123947500D02*
X116755000Y-123947500D01*
X131235000Y-132017500D02*
X131235000Y-123947500D01*
G04 #@! TO.C,L12*
X101735000Y-132567750D02*
X101735000Y-140637750D01*
X101735000Y-140637750D02*
X116215000Y-140637750D01*
X116215000Y-132567750D02*
X101735000Y-132567750D01*
X116215000Y-140637750D02*
X116215000Y-132567750D01*
G04 #@! TO.C,R9*
X165345000Y-143770000D02*
X168305000Y-143770000D01*
X165345000Y-145230000D02*
X165345000Y-143770000D01*
X168305000Y-143770000D02*
X168305000Y-145230000D01*
X168305000Y-145230000D02*
X165345000Y-145230000D01*
G04 #@! TO.C,K3*
X146905000Y-122817500D02*
X146905000Y-115837500D01*
X146905000Y-122817500D02*
X157405000Y-122817500D01*
X157405000Y-115837500D02*
X146905000Y-115837500D01*
X157405000Y-115837500D02*
X157405000Y-122817500D01*
G04 #@! TO.C,R1*
X158775000Y-144043000D02*
X161735000Y-144043000D01*
X158775000Y-145503000D02*
X158775000Y-144043000D01*
X161735000Y-144043000D02*
X161735000Y-145503000D01*
X161735000Y-145503000D02*
X158775000Y-145503000D01*
G04 #@! TO.C,L13*
X131585000Y-141119000D02*
X131585000Y-149189000D01*
X131585000Y-149189000D02*
X146065000Y-149189000D01*
X146065000Y-141119000D02*
X131585000Y-141119000D01*
X146065000Y-149189000D02*
X146065000Y-141119000D01*
G04 #@! TO.C,U1*
X159305000Y-143975000D02*
X159305000Y-140375000D01*
X165205000Y-140375000D02*
X159305000Y-140375000D01*
X165205000Y-143975000D02*
X159305000Y-143975000D01*
X165205000Y-143975000D02*
X165205000Y-140375000D01*
G04 #@! TO.C,L14*
X116705000Y-141179000D02*
X116705000Y-149249000D01*
X116705000Y-149249000D02*
X131185000Y-149249000D01*
X131185000Y-141179000D02*
X116705000Y-141179000D01*
X131185000Y-149249000D02*
X131185000Y-141179000D01*
G04 #@! TO.C,L5*
X116755000Y-115293750D02*
X116755000Y-123363750D01*
X116755000Y-123363750D02*
X131235000Y-123363750D01*
X131235000Y-115293750D02*
X116755000Y-115293750D01*
X131235000Y-123363750D02*
X131235000Y-115293750D01*
G04 #@! TO.C,L18*
X151270000Y-102270000D02*
X154230000Y-102270000D01*
X151270000Y-103730000D02*
X151270000Y-102270000D01*
X154230000Y-102270000D02*
X154230000Y-103730000D01*
X154230000Y-103730000D02*
X151270000Y-103730000D01*
G04 #@! TO.C,K4*
X146905000Y-131430000D02*
X146905000Y-124450000D01*
X146905000Y-131430000D02*
X157405000Y-131430000D01*
X157405000Y-124450000D02*
X146905000Y-124450000D01*
X157405000Y-124450000D02*
X157405000Y-131430000D01*
G04 #@! TO.C,U2*
X159625000Y-134775000D02*
X159625000Y-139975000D01*
X159625000Y-139975000D02*
X164825000Y-139975000D01*
X164825000Y-134775000D02*
X159625000Y-134775000D01*
X164825000Y-139975000D02*
X164825000Y-134775000D01*
G04 #@! TO.C,R7*
X166291000Y-111109000D02*
X169251000Y-111109000D01*
X166291000Y-112569000D02*
X166291000Y-111109000D01*
X169251000Y-111109000D02*
X169251000Y-112569000D01*
X169251000Y-112569000D02*
X166291000Y-112569000D01*
G04 #@! TO.C,C2*
X157685000Y-135685000D02*
X159145000Y-135685000D01*
X157685000Y-138645000D02*
X157685000Y-135685000D01*
X159145000Y-135685000D02*
X159145000Y-138645000D01*
X159145000Y-138645000D02*
X157685000Y-138645000D01*
G04 #@! TO.C,R8*
X158775000Y-146172000D02*
X161735000Y-146172000D01*
X158775000Y-147632000D02*
X158775000Y-146172000D01*
X161735000Y-146172000D02*
X161735000Y-147632000D01*
X161735000Y-147632000D02*
X158775000Y-147632000D01*
G04 #@! TO.C,L10*
X131575000Y-132522750D02*
X131575000Y-140592750D01*
X131575000Y-140592750D02*
X146055000Y-140592750D01*
X146055000Y-132522750D02*
X131575000Y-132522750D01*
X146055000Y-140592750D02*
X146055000Y-132522750D01*
G04 #@! TD*
M02*
