G04 #@! TF.GenerationSoftware,KiCad,Pcbnew,9.0.0*
G04 #@! TF.CreationDate,2025-07-18T15:04:11-05:00*
G04 #@! TF.ProjectId,txfilters,74786669-6c74-4657-9273-2e6b69636164,rev?*
G04 #@! TF.SameCoordinates,Original*
G04 #@! TF.FileFunction,Legend,Top*
G04 #@! TF.FilePolarity,Positive*
%FSLAX46Y46*%
G04 Gerber Fmt 4.6, Leading zero omitted, Abs format (unit mm)*
G04 Created by KiCad (PCBNEW 9.0.0) date 2025-07-18 15:04:11*
%MOMM*%
%LPD*%
G01*
G04 APERTURE LIST*
G04 Aperture macros list*
%AMRoundRect*
0 Rectangle with rounded corners*
0 $1 Rounding radius*
0 $2 $3 $4 $5 $6 $7 $8 $9 X,Y pos of 4 corners*
0 Add a 4 corners polygon primitive as box body*
4,1,4,$2,$3,$4,$5,$6,$7,$8,$9,$2,$3,0*
0 Add four circle primitives for the rounded corners*
1,1,$1+$1,$2,$3*
1,1,$1+$1,$4,$5*
1,1,$1+$1,$6,$7*
1,1,$1+$1,$8,$9*
0 Add four rect primitives between the rounded corners*
20,1,$1+$1,$2,$3,$4,$5,0*
20,1,$1+$1,$4,$5,$6,$7,0*
20,1,$1+$1,$6,$7,$8,$9,0*
20,1,$1+$1,$8,$9,$2,$3,0*%
G04 Aperture macros list end*
%ADD10C,0.150000*%
%ADD11C,0.120000*%
%ADD12C,1.400000*%
%ADD13C,3.000000*%
%ADD14RoundRect,0.225000X0.250000X-0.225000X0.250000X0.225000X-0.250000X0.225000X-0.250000X-0.225000X0*%
%ADD15C,2.700000*%
%ADD16RoundRect,0.100000X-0.400000X-0.400000X0.400000X-0.400000X0.400000X0.400000X-0.400000X0.400000X0*%
%ADD17RoundRect,0.105000X-0.420000X-0.995000X0.420000X-0.995000X0.420000X0.995000X-0.420000X0.995000X0*%
%ADD18C,2.000000*%
%ADD19RoundRect,0.150000X0.825000X0.150000X-0.825000X0.150000X-0.825000X-0.150000X0.825000X-0.150000X0*%
%ADD20RoundRect,0.225000X-0.225000X-0.250000X0.225000X-0.250000X0.225000X0.250000X-0.225000X0.250000X0*%
%ADD21RoundRect,0.200000X-0.275000X0.200000X-0.275000X-0.200000X0.275000X-0.200000X0.275000X0.200000X0*%
%ADD22RoundRect,0.225000X0.225000X0.250000X-0.225000X0.250000X-0.225000X-0.250000X0.225000X-0.250000X0*%
%ADD23RoundRect,0.250000X1.350000X-0.385000X1.350000X0.385000X-1.350000X0.385000X-1.350000X-0.385000X0*%
%ADD24RoundRect,0.250000X1.600000X-0.425000X1.600000X0.425000X-1.600000X0.425000X-1.600000X-0.425000X0*%
%ADD25RoundRect,0.250000X-1.137500X-0.550000X1.137500X-0.550000X1.137500X0.550000X-1.137500X0.550000X0*%
%ADD26RoundRect,0.225000X-0.250000X0.225000X-0.250000X-0.225000X0.250000X-0.225000X0.250000X0.225000X0*%
%ADD27RoundRect,0.250000X0.350000X0.625000X-0.350000X0.625000X-0.350000X-0.625000X0.350000X-0.625000X0*%
%ADD28O,1.200000X1.750000*%
%ADD29RoundRect,0.200000X0.200000X0.275000X-0.200000X0.275000X-0.200000X-0.275000X0.200000X-0.275000X0*%
%ADD30RoundRect,0.250000X-0.725000X0.600000X-0.725000X-0.600000X0.725000X-0.600000X0.725000X0.600000X0*%
%ADD31O,1.950000X1.700000*%
%ADD32RoundRect,0.218750X0.218750X0.256250X-0.218750X0.256250X-0.218750X-0.256250X0.218750X-0.256250X0*%
%ADD33RoundRect,0.225000X-0.375000X0.225000X-0.375000X-0.225000X0.375000X-0.225000X0.375000X0.225000X0*%
%ADD34RoundRect,0.200000X-0.200000X-0.275000X0.200000X-0.275000X0.200000X0.275000X-0.200000X0.275000X0*%
%ADD35R,1.100000X0.250000*%
%ADD36RoundRect,0.218750X-0.218750X-0.256250X0.218750X-0.256250X0.218750X0.256250X-0.218750X0.256250X0*%
%ADD37RoundRect,0.062500X0.062500X-0.350000X0.062500X0.350000X-0.062500X0.350000X-0.062500X-0.350000X0*%
%ADD38RoundRect,0.062500X0.350000X-0.062500X0.350000X0.062500X-0.350000X0.062500X-0.350000X-0.062500X0*%
%ADD39R,2.500000X2.500000*%
%ADD40R,1.700000X1.700000*%
%ADD41O,1.700000X1.700000*%
%ADD42RoundRect,0.250000X-0.600000X-0.750000X0.600000X-0.750000X0.600000X0.750000X-0.600000X0.750000X0*%
%ADD43O,1.700000X2.000000*%
G04 APERTURE END LIST*
D10*
X154980905Y-141049819D02*
X154980905Y-140049819D01*
X155552333Y-141049819D02*
X155123762Y-140478390D01*
X155552333Y-140049819D02*
X154980905Y-140621247D01*
X156409476Y-140049819D02*
X156219000Y-140049819D01*
X156219000Y-140049819D02*
X156123762Y-140097438D01*
X156123762Y-140097438D02*
X156076143Y-140145057D01*
X156076143Y-140145057D02*
X155980905Y-140287914D01*
X155980905Y-140287914D02*
X155933286Y-140478390D01*
X155933286Y-140478390D02*
X155933286Y-140859342D01*
X155933286Y-140859342D02*
X155980905Y-140954580D01*
X155980905Y-140954580D02*
X156028524Y-141002200D01*
X156028524Y-141002200D02*
X156123762Y-141049819D01*
X156123762Y-141049819D02*
X156314238Y-141049819D01*
X156314238Y-141049819D02*
X156409476Y-141002200D01*
X156409476Y-141002200D02*
X156457095Y-140954580D01*
X156457095Y-140954580D02*
X156504714Y-140859342D01*
X156504714Y-140859342D02*
X156504714Y-140621247D01*
X156504714Y-140621247D02*
X156457095Y-140526009D01*
X156457095Y-140526009D02*
X156409476Y-140478390D01*
X156409476Y-140478390D02*
X156314238Y-140430771D01*
X156314238Y-140430771D02*
X156123762Y-140430771D01*
X156123762Y-140430771D02*
X156028524Y-140478390D01*
X156028524Y-140478390D02*
X155980905Y-140526009D01*
X155980905Y-140526009D02*
X155933286Y-140621247D01*
X111388333Y-124037319D02*
X110912143Y-124037319D01*
X110912143Y-124037319D02*
X110912143Y-123037319D01*
X111769286Y-124037319D02*
X111959762Y-124037319D01*
X111959762Y-124037319D02*
X112055000Y-123989700D01*
X112055000Y-123989700D02*
X112102619Y-123942080D01*
X112102619Y-123942080D02*
X112197857Y-123799223D01*
X112197857Y-123799223D02*
X112245476Y-123608747D01*
X112245476Y-123608747D02*
X112245476Y-123227795D01*
X112245476Y-123227795D02*
X112197857Y-123132557D01*
X112197857Y-123132557D02*
X112150238Y-123084938D01*
X112150238Y-123084938D02*
X112055000Y-123037319D01*
X112055000Y-123037319D02*
X111864524Y-123037319D01*
X111864524Y-123037319D02*
X111769286Y-123084938D01*
X111769286Y-123084938D02*
X111721667Y-123132557D01*
X111721667Y-123132557D02*
X111674048Y-123227795D01*
X111674048Y-123227795D02*
X111674048Y-123465890D01*
X111674048Y-123465890D02*
X111721667Y-123561128D01*
X111721667Y-123561128D02*
X111769286Y-123608747D01*
X111769286Y-123608747D02*
X111864524Y-123656366D01*
X111864524Y-123656366D02*
X112055000Y-123656366D01*
X112055000Y-123656366D02*
X112150238Y-123608747D01*
X112150238Y-123608747D02*
X112197857Y-123561128D01*
X112197857Y-123561128D02*
X112245476Y-123465890D01*
X171859580Y-111642857D02*
X171907200Y-111690476D01*
X171907200Y-111690476D02*
X171954819Y-111833333D01*
X171954819Y-111833333D02*
X171954819Y-111928571D01*
X171954819Y-111928571D02*
X171907200Y-112071428D01*
X171907200Y-112071428D02*
X171811961Y-112166666D01*
X171811961Y-112166666D02*
X171716723Y-112214285D01*
X171716723Y-112214285D02*
X171526247Y-112261904D01*
X171526247Y-112261904D02*
X171383390Y-112261904D01*
X171383390Y-112261904D02*
X171192914Y-112214285D01*
X171192914Y-112214285D02*
X171097676Y-112166666D01*
X171097676Y-112166666D02*
X171002438Y-112071428D01*
X171002438Y-112071428D02*
X170954819Y-111928571D01*
X170954819Y-111928571D02*
X170954819Y-111833333D01*
X170954819Y-111833333D02*
X171002438Y-111690476D01*
X171002438Y-111690476D02*
X171050057Y-111642857D01*
X171050057Y-111261904D02*
X171002438Y-111214285D01*
X171002438Y-111214285D02*
X170954819Y-111119047D01*
X170954819Y-111119047D02*
X170954819Y-110880952D01*
X170954819Y-110880952D02*
X171002438Y-110785714D01*
X171002438Y-110785714D02*
X171050057Y-110738095D01*
X171050057Y-110738095D02*
X171145295Y-110690476D01*
X171145295Y-110690476D02*
X171240533Y-110690476D01*
X171240533Y-110690476D02*
X171383390Y-110738095D01*
X171383390Y-110738095D02*
X171954819Y-111309523D01*
X171954819Y-111309523D02*
X171954819Y-110690476D01*
X170954819Y-110357142D02*
X170954819Y-109690476D01*
X170954819Y-109690476D02*
X171954819Y-110119047D01*
X103762857Y-101629771D02*
X103762857Y-101029771D01*
X103762857Y-101315485D02*
X104105714Y-101315485D01*
X104105714Y-101629771D02*
X104105714Y-101029771D01*
X104705713Y-101629771D02*
X104362856Y-101629771D01*
X104534285Y-101629771D02*
X104534285Y-101029771D01*
X104534285Y-101029771D02*
X104477142Y-101115485D01*
X104477142Y-101115485D02*
X104419999Y-101172628D01*
X104419999Y-101172628D02*
X104362856Y-101201200D01*
X139916666Y-103454819D02*
X139916666Y-104169104D01*
X139916666Y-104169104D02*
X139869047Y-104311961D01*
X139869047Y-104311961D02*
X139773809Y-104407200D01*
X139773809Y-104407200D02*
X139630952Y-104454819D01*
X139630952Y-104454819D02*
X139535714Y-104454819D01*
X140535714Y-103883390D02*
X140440476Y-103835771D01*
X140440476Y-103835771D02*
X140392857Y-103788152D01*
X140392857Y-103788152D02*
X140345238Y-103692914D01*
X140345238Y-103692914D02*
X140345238Y-103645295D01*
X140345238Y-103645295D02*
X140392857Y-103550057D01*
X140392857Y-103550057D02*
X140440476Y-103502438D01*
X140440476Y-103502438D02*
X140535714Y-103454819D01*
X140535714Y-103454819D02*
X140726190Y-103454819D01*
X140726190Y-103454819D02*
X140821428Y-103502438D01*
X140821428Y-103502438D02*
X140869047Y-103550057D01*
X140869047Y-103550057D02*
X140916666Y-103645295D01*
X140916666Y-103645295D02*
X140916666Y-103692914D01*
X140916666Y-103692914D02*
X140869047Y-103788152D01*
X140869047Y-103788152D02*
X140821428Y-103835771D01*
X140821428Y-103835771D02*
X140726190Y-103883390D01*
X140726190Y-103883390D02*
X140535714Y-103883390D01*
X140535714Y-103883390D02*
X140440476Y-103931009D01*
X140440476Y-103931009D02*
X140392857Y-103978628D01*
X140392857Y-103978628D02*
X140345238Y-104073866D01*
X140345238Y-104073866D02*
X140345238Y-104264342D01*
X140345238Y-104264342D02*
X140392857Y-104359580D01*
X140392857Y-104359580D02*
X140440476Y-104407200D01*
X140440476Y-104407200D02*
X140535714Y-104454819D01*
X140535714Y-104454819D02*
X140726190Y-104454819D01*
X140726190Y-104454819D02*
X140821428Y-104407200D01*
X140821428Y-104407200D02*
X140869047Y-104359580D01*
X140869047Y-104359580D02*
X140916666Y-104264342D01*
X140916666Y-104264342D02*
X140916666Y-104073866D01*
X140916666Y-104073866D02*
X140869047Y-103978628D01*
X140869047Y-103978628D02*
X140821428Y-103931009D01*
X140821428Y-103931009D02*
X140726190Y-103883390D01*
X140918333Y-106604819D02*
X140442143Y-106604819D01*
X140442143Y-106604819D02*
X140442143Y-105604819D01*
X141775476Y-106604819D02*
X141204048Y-106604819D01*
X141489762Y-106604819D02*
X141489762Y-105604819D01*
X141489762Y-105604819D02*
X141394524Y-105747676D01*
X141394524Y-105747676D02*
X141299286Y-105842914D01*
X141299286Y-105842914D02*
X141204048Y-105890533D01*
X155122905Y-106459819D02*
X155122905Y-105459819D01*
X155694333Y-106459819D02*
X155265762Y-105888390D01*
X155694333Y-105459819D02*
X155122905Y-106031247D01*
X156646714Y-106459819D02*
X156075286Y-106459819D01*
X156361000Y-106459819D02*
X156361000Y-105459819D01*
X156361000Y-105459819D02*
X156265762Y-105602676D01*
X156265762Y-105602676D02*
X156170524Y-105697914D01*
X156170524Y-105697914D02*
X156075286Y-105745533D01*
X168444142Y-122731819D02*
X167967952Y-122731819D01*
X167967952Y-122731819D02*
X167967952Y-121731819D01*
X169301285Y-122731819D02*
X168729857Y-122731819D01*
X169015571Y-122731819D02*
X169015571Y-121731819D01*
X169015571Y-121731819D02*
X168920333Y-121874676D01*
X168920333Y-121874676D02*
X168825095Y-121969914D01*
X168825095Y-121969914D02*
X168729857Y-122017533D01*
X169634619Y-121731819D02*
X170301285Y-121731819D01*
X170301285Y-121731819D02*
X169872714Y-122731819D01*
X127278333Y-106604819D02*
X126802143Y-106604819D01*
X126802143Y-106604819D02*
X126802143Y-105604819D01*
X127564048Y-105700057D02*
X127611667Y-105652438D01*
X127611667Y-105652438D02*
X127706905Y-105604819D01*
X127706905Y-105604819D02*
X127945000Y-105604819D01*
X127945000Y-105604819D02*
X128040238Y-105652438D01*
X128040238Y-105652438D02*
X128087857Y-105700057D01*
X128087857Y-105700057D02*
X128135476Y-105795295D01*
X128135476Y-105795295D02*
X128135476Y-105890533D01*
X128135476Y-105890533D02*
X128087857Y-106033390D01*
X128087857Y-106033390D02*
X127516429Y-106604819D01*
X127516429Y-106604819D02*
X128135476Y-106604819D01*
X111308333Y-106414819D02*
X110832143Y-106414819D01*
X110832143Y-106414819D02*
X110832143Y-105414819D01*
X111546429Y-105414819D02*
X112165476Y-105414819D01*
X112165476Y-105414819D02*
X111832143Y-105795771D01*
X111832143Y-105795771D02*
X111975000Y-105795771D01*
X111975000Y-105795771D02*
X112070238Y-105843390D01*
X112070238Y-105843390D02*
X112117857Y-105891009D01*
X112117857Y-105891009D02*
X112165476Y-105986247D01*
X112165476Y-105986247D02*
X112165476Y-106224342D01*
X112165476Y-106224342D02*
X112117857Y-106319580D01*
X112117857Y-106319580D02*
X112070238Y-106367200D01*
X112070238Y-106367200D02*
X111975000Y-106414819D01*
X111975000Y-106414819D02*
X111689286Y-106414819D01*
X111689286Y-106414819D02*
X111594048Y-106367200D01*
X111594048Y-106367200D02*
X111546429Y-106319580D01*
X155164905Y-132601319D02*
X155164905Y-131601319D01*
X155736333Y-132601319D02*
X155307762Y-132029890D01*
X155736333Y-131601319D02*
X155164905Y-132172747D01*
X156641095Y-131601319D02*
X156164905Y-131601319D01*
X156164905Y-131601319D02*
X156117286Y-132077509D01*
X156117286Y-132077509D02*
X156164905Y-132029890D01*
X156164905Y-132029890D02*
X156260143Y-131982271D01*
X156260143Y-131982271D02*
X156498238Y-131982271D01*
X156498238Y-131982271D02*
X156593476Y-132029890D01*
X156593476Y-132029890D02*
X156641095Y-132077509D01*
X156641095Y-132077509D02*
X156688714Y-132172747D01*
X156688714Y-132172747D02*
X156688714Y-132410842D01*
X156688714Y-132410842D02*
X156641095Y-132506080D01*
X156641095Y-132506080D02*
X156593476Y-132553700D01*
X156593476Y-132553700D02*
X156498238Y-132601319D01*
X156498238Y-132601319D02*
X156260143Y-132601319D01*
X156260143Y-132601319D02*
X156164905Y-132553700D01*
X156164905Y-132553700D02*
X156117286Y-132506080D01*
X157605819Y-130928904D02*
X158415342Y-130928904D01*
X158415342Y-130928904D02*
X158510580Y-130881285D01*
X158510580Y-130881285D02*
X158558200Y-130833666D01*
X158558200Y-130833666D02*
X158605819Y-130738428D01*
X158605819Y-130738428D02*
X158605819Y-130547952D01*
X158605819Y-130547952D02*
X158558200Y-130452714D01*
X158558200Y-130452714D02*
X158510580Y-130405095D01*
X158510580Y-130405095D02*
X158415342Y-130357476D01*
X158415342Y-130357476D02*
X157605819Y-130357476D01*
X157605819Y-129976523D02*
X157605819Y-129357476D01*
X157605819Y-129357476D02*
X157986771Y-129690809D01*
X157986771Y-129690809D02*
X157986771Y-129547952D01*
X157986771Y-129547952D02*
X158034390Y-129452714D01*
X158034390Y-129452714D02*
X158082009Y-129405095D01*
X158082009Y-129405095D02*
X158177247Y-129357476D01*
X158177247Y-129357476D02*
X158415342Y-129357476D01*
X158415342Y-129357476D02*
X158510580Y-129405095D01*
X158510580Y-129405095D02*
X158558200Y-129452714D01*
X158558200Y-129452714D02*
X158605819Y-129547952D01*
X158605819Y-129547952D02*
X158605819Y-129833666D01*
X158605819Y-129833666D02*
X158558200Y-129928904D01*
X158558200Y-129928904D02*
X158510580Y-129976523D01*
X163044333Y-146724580D02*
X162996714Y-146772200D01*
X162996714Y-146772200D02*
X162853857Y-146819819D01*
X162853857Y-146819819D02*
X162758619Y-146819819D01*
X162758619Y-146819819D02*
X162615762Y-146772200D01*
X162615762Y-146772200D02*
X162520524Y-146676961D01*
X162520524Y-146676961D02*
X162472905Y-146581723D01*
X162472905Y-146581723D02*
X162425286Y-146391247D01*
X162425286Y-146391247D02*
X162425286Y-146248390D01*
X162425286Y-146248390D02*
X162472905Y-146057914D01*
X162472905Y-146057914D02*
X162520524Y-145962676D01*
X162520524Y-145962676D02*
X162615762Y-145867438D01*
X162615762Y-145867438D02*
X162758619Y-145819819D01*
X162758619Y-145819819D02*
X162853857Y-145819819D01*
X162853857Y-145819819D02*
X162996714Y-145867438D01*
X162996714Y-145867438D02*
X163044333Y-145915057D01*
X163377667Y-145819819D02*
X163996714Y-145819819D01*
X163996714Y-145819819D02*
X163663381Y-146200771D01*
X163663381Y-146200771D02*
X163806238Y-146200771D01*
X163806238Y-146200771D02*
X163901476Y-146248390D01*
X163901476Y-146248390D02*
X163949095Y-146296009D01*
X163949095Y-146296009D02*
X163996714Y-146391247D01*
X163996714Y-146391247D02*
X163996714Y-146629342D01*
X163996714Y-146629342D02*
X163949095Y-146724580D01*
X163949095Y-146724580D02*
X163901476Y-146772200D01*
X163901476Y-146772200D02*
X163806238Y-146819819D01*
X163806238Y-146819819D02*
X163520524Y-146819819D01*
X163520524Y-146819819D02*
X163425286Y-146772200D01*
X163425286Y-146772200D02*
X163377667Y-146724580D01*
X177954819Y-145067857D02*
X177478628Y-145401190D01*
X177954819Y-145639285D02*
X176954819Y-145639285D01*
X176954819Y-145639285D02*
X176954819Y-145258333D01*
X176954819Y-145258333D02*
X177002438Y-145163095D01*
X177002438Y-145163095D02*
X177050057Y-145115476D01*
X177050057Y-145115476D02*
X177145295Y-145067857D01*
X177145295Y-145067857D02*
X177288152Y-145067857D01*
X177288152Y-145067857D02*
X177383390Y-145115476D01*
X177383390Y-145115476D02*
X177431009Y-145163095D01*
X177431009Y-145163095D02*
X177478628Y-145258333D01*
X177478628Y-145258333D02*
X177478628Y-145639285D01*
X177954819Y-144115476D02*
X177954819Y-144686904D01*
X177954819Y-144401190D02*
X176954819Y-144401190D01*
X176954819Y-144401190D02*
X177097676Y-144496428D01*
X177097676Y-144496428D02*
X177192914Y-144591666D01*
X177192914Y-144591666D02*
X177240533Y-144686904D01*
X177954819Y-143163095D02*
X177954819Y-143734523D01*
X177954819Y-143448809D02*
X176954819Y-143448809D01*
X176954819Y-143448809D02*
X177097676Y-143544047D01*
X177097676Y-143544047D02*
X177192914Y-143639285D01*
X177192914Y-143639285D02*
X177240533Y-143734523D01*
X181762857Y-150629771D02*
X181762857Y-150029771D01*
X181762857Y-150315485D02*
X182105714Y-150315485D01*
X182105714Y-150629771D02*
X182105714Y-150029771D01*
X182648571Y-150029771D02*
X182534285Y-150029771D01*
X182534285Y-150029771D02*
X182477142Y-150058342D01*
X182477142Y-150058342D02*
X182448571Y-150086914D01*
X182448571Y-150086914D02*
X182391428Y-150172628D01*
X182391428Y-150172628D02*
X182362856Y-150286914D01*
X182362856Y-150286914D02*
X182362856Y-150515485D01*
X182362856Y-150515485D02*
X182391428Y-150572628D01*
X182391428Y-150572628D02*
X182419999Y-150601200D01*
X182419999Y-150601200D02*
X182477142Y-150629771D01*
X182477142Y-150629771D02*
X182591428Y-150629771D01*
X182591428Y-150629771D02*
X182648571Y-150601200D01*
X182648571Y-150601200D02*
X182677142Y-150572628D01*
X182677142Y-150572628D02*
X182705713Y-150515485D01*
X182705713Y-150515485D02*
X182705713Y-150372628D01*
X182705713Y-150372628D02*
X182677142Y-150315485D01*
X182677142Y-150315485D02*
X182648571Y-150286914D01*
X182648571Y-150286914D02*
X182591428Y-150258342D01*
X182591428Y-150258342D02*
X182477142Y-150258342D01*
X182477142Y-150258342D02*
X182419999Y-150286914D01*
X182419999Y-150286914D02*
X182391428Y-150315485D01*
X182391428Y-150315485D02*
X182362856Y-150372628D01*
X155522722Y-105109580D02*
X155475103Y-105157200D01*
X155475103Y-105157200D02*
X155332246Y-105204819D01*
X155332246Y-105204819D02*
X155237008Y-105204819D01*
X155237008Y-105204819D02*
X155094151Y-105157200D01*
X155094151Y-105157200D02*
X154998913Y-105061961D01*
X154998913Y-105061961D02*
X154951294Y-104966723D01*
X154951294Y-104966723D02*
X154903675Y-104776247D01*
X154903675Y-104776247D02*
X154903675Y-104633390D01*
X154903675Y-104633390D02*
X154951294Y-104442914D01*
X154951294Y-104442914D02*
X154998913Y-104347676D01*
X154998913Y-104347676D02*
X155094151Y-104252438D01*
X155094151Y-104252438D02*
X155237008Y-104204819D01*
X155237008Y-104204819D02*
X155332246Y-104204819D01*
X155332246Y-104204819D02*
X155475103Y-104252438D01*
X155475103Y-104252438D02*
X155522722Y-104300057D01*
X156379865Y-104538152D02*
X156379865Y-105204819D01*
X156141770Y-104157200D02*
X155903675Y-104871485D01*
X155903675Y-104871485D02*
X156522722Y-104871485D01*
X156808437Y-104204819D02*
X157475103Y-104204819D01*
X157475103Y-104204819D02*
X157046532Y-105204819D01*
X148997722Y-105109580D02*
X148950103Y-105157200D01*
X148950103Y-105157200D02*
X148807246Y-105204819D01*
X148807246Y-105204819D02*
X148712008Y-105204819D01*
X148712008Y-105204819D02*
X148569151Y-105157200D01*
X148569151Y-105157200D02*
X148473913Y-105061961D01*
X148473913Y-105061961D02*
X148426294Y-104966723D01*
X148426294Y-104966723D02*
X148378675Y-104776247D01*
X148378675Y-104776247D02*
X148378675Y-104633390D01*
X148378675Y-104633390D02*
X148426294Y-104442914D01*
X148426294Y-104442914D02*
X148473913Y-104347676D01*
X148473913Y-104347676D02*
X148569151Y-104252438D01*
X148569151Y-104252438D02*
X148712008Y-104204819D01*
X148712008Y-104204819D02*
X148807246Y-104204819D01*
X148807246Y-104204819D02*
X148950103Y-104252438D01*
X148950103Y-104252438D02*
X148997722Y-104300057D01*
X149854865Y-104538152D02*
X149854865Y-105204819D01*
X149616770Y-104157200D02*
X149378675Y-104871485D01*
X149378675Y-104871485D02*
X149997722Y-104871485D01*
X150521532Y-104633390D02*
X150426294Y-104585771D01*
X150426294Y-104585771D02*
X150378675Y-104538152D01*
X150378675Y-104538152D02*
X150331056Y-104442914D01*
X150331056Y-104442914D02*
X150331056Y-104395295D01*
X150331056Y-104395295D02*
X150378675Y-104300057D01*
X150378675Y-104300057D02*
X150426294Y-104252438D01*
X150426294Y-104252438D02*
X150521532Y-104204819D01*
X150521532Y-104204819D02*
X150712008Y-104204819D01*
X150712008Y-104204819D02*
X150807246Y-104252438D01*
X150807246Y-104252438D02*
X150854865Y-104300057D01*
X150854865Y-104300057D02*
X150902484Y-104395295D01*
X150902484Y-104395295D02*
X150902484Y-104442914D01*
X150902484Y-104442914D02*
X150854865Y-104538152D01*
X150854865Y-104538152D02*
X150807246Y-104585771D01*
X150807246Y-104585771D02*
X150712008Y-104633390D01*
X150712008Y-104633390D02*
X150521532Y-104633390D01*
X150521532Y-104633390D02*
X150426294Y-104681009D01*
X150426294Y-104681009D02*
X150378675Y-104728628D01*
X150378675Y-104728628D02*
X150331056Y-104823866D01*
X150331056Y-104823866D02*
X150331056Y-105014342D01*
X150331056Y-105014342D02*
X150378675Y-105109580D01*
X150378675Y-105109580D02*
X150426294Y-105157200D01*
X150426294Y-105157200D02*
X150521532Y-105204819D01*
X150521532Y-105204819D02*
X150712008Y-105204819D01*
X150712008Y-105204819D02*
X150807246Y-105157200D01*
X150807246Y-105157200D02*
X150854865Y-105109580D01*
X150854865Y-105109580D02*
X150902484Y-105014342D01*
X150902484Y-105014342D02*
X150902484Y-104823866D01*
X150902484Y-104823866D02*
X150854865Y-104728628D01*
X150854865Y-104728628D02*
X150807246Y-104681009D01*
X150807246Y-104681009D02*
X150712008Y-104633390D01*
X123762857Y-101629771D02*
X123762857Y-101029771D01*
X123762857Y-101315485D02*
X124105714Y-101315485D01*
X124105714Y-101629771D02*
X124105714Y-101029771D01*
X124362856Y-101086914D02*
X124391428Y-101058342D01*
X124391428Y-101058342D02*
X124448571Y-101029771D01*
X124448571Y-101029771D02*
X124591428Y-101029771D01*
X124591428Y-101029771D02*
X124648571Y-101058342D01*
X124648571Y-101058342D02*
X124677142Y-101086914D01*
X124677142Y-101086914D02*
X124705713Y-101144057D01*
X124705713Y-101144057D02*
X124705713Y-101201200D01*
X124705713Y-101201200D02*
X124677142Y-101286914D01*
X124677142Y-101286914D02*
X124334285Y-101629771D01*
X124334285Y-101629771D02*
X124705713Y-101629771D01*
X183004166Y-122579819D02*
X183004166Y-123294104D01*
X183004166Y-123294104D02*
X182956547Y-123436961D01*
X182956547Y-123436961D02*
X182861309Y-123532200D01*
X182861309Y-123532200D02*
X182718452Y-123579819D01*
X182718452Y-123579819D02*
X182623214Y-123579819D01*
X183385119Y-122579819D02*
X184004166Y-122579819D01*
X184004166Y-122579819D02*
X183670833Y-122960771D01*
X183670833Y-122960771D02*
X183813690Y-122960771D01*
X183813690Y-122960771D02*
X183908928Y-123008390D01*
X183908928Y-123008390D02*
X183956547Y-123056009D01*
X183956547Y-123056009D02*
X184004166Y-123151247D01*
X184004166Y-123151247D02*
X184004166Y-123389342D01*
X184004166Y-123389342D02*
X183956547Y-123484580D01*
X183956547Y-123484580D02*
X183908928Y-123532200D01*
X183908928Y-123532200D02*
X183813690Y-123579819D01*
X183813690Y-123579819D02*
X183527976Y-123579819D01*
X183527976Y-123579819D02*
X183432738Y-123532200D01*
X183432738Y-123532200D02*
X183385119Y-123484580D01*
X111778333Y-115416069D02*
X111302143Y-115416069D01*
X111302143Y-115416069D02*
X111302143Y-114416069D01*
X112540238Y-114416069D02*
X112349762Y-114416069D01*
X112349762Y-114416069D02*
X112254524Y-114463688D01*
X112254524Y-114463688D02*
X112206905Y-114511307D01*
X112206905Y-114511307D02*
X112111667Y-114654164D01*
X112111667Y-114654164D02*
X112064048Y-114844640D01*
X112064048Y-114844640D02*
X112064048Y-115225592D01*
X112064048Y-115225592D02*
X112111667Y-115320830D01*
X112111667Y-115320830D02*
X112159286Y-115368450D01*
X112159286Y-115368450D02*
X112254524Y-115416069D01*
X112254524Y-115416069D02*
X112445000Y-115416069D01*
X112445000Y-115416069D02*
X112540238Y-115368450D01*
X112540238Y-115368450D02*
X112587857Y-115320830D01*
X112587857Y-115320830D02*
X112635476Y-115225592D01*
X112635476Y-115225592D02*
X112635476Y-114987497D01*
X112635476Y-114987497D02*
X112587857Y-114892259D01*
X112587857Y-114892259D02*
X112540238Y-114844640D01*
X112540238Y-114844640D02*
X112445000Y-114797021D01*
X112445000Y-114797021D02*
X112254524Y-114797021D01*
X112254524Y-114797021D02*
X112159286Y-114844640D01*
X112159286Y-114844640D02*
X112111667Y-114892259D01*
X112111667Y-114892259D02*
X112064048Y-114987497D01*
X158134333Y-117584580D02*
X158086714Y-117632200D01*
X158086714Y-117632200D02*
X157943857Y-117679819D01*
X157943857Y-117679819D02*
X157848619Y-117679819D01*
X157848619Y-117679819D02*
X157705762Y-117632200D01*
X157705762Y-117632200D02*
X157610524Y-117536961D01*
X157610524Y-117536961D02*
X157562905Y-117441723D01*
X157562905Y-117441723D02*
X157515286Y-117251247D01*
X157515286Y-117251247D02*
X157515286Y-117108390D01*
X157515286Y-117108390D02*
X157562905Y-116917914D01*
X157562905Y-116917914D02*
X157610524Y-116822676D01*
X157610524Y-116822676D02*
X157705762Y-116727438D01*
X157705762Y-116727438D02*
X157848619Y-116679819D01*
X157848619Y-116679819D02*
X157943857Y-116679819D01*
X157943857Y-116679819D02*
X158086714Y-116727438D01*
X158086714Y-116727438D02*
X158134333Y-116775057D01*
X158991476Y-116679819D02*
X158801000Y-116679819D01*
X158801000Y-116679819D02*
X158705762Y-116727438D01*
X158705762Y-116727438D02*
X158658143Y-116775057D01*
X158658143Y-116775057D02*
X158562905Y-116917914D01*
X158562905Y-116917914D02*
X158515286Y-117108390D01*
X158515286Y-117108390D02*
X158515286Y-117489342D01*
X158515286Y-117489342D02*
X158562905Y-117584580D01*
X158562905Y-117584580D02*
X158610524Y-117632200D01*
X158610524Y-117632200D02*
X158705762Y-117679819D01*
X158705762Y-117679819D02*
X158896238Y-117679819D01*
X158896238Y-117679819D02*
X158991476Y-117632200D01*
X158991476Y-117632200D02*
X159039095Y-117584580D01*
X159039095Y-117584580D02*
X159086714Y-117489342D01*
X159086714Y-117489342D02*
X159086714Y-117251247D01*
X159086714Y-117251247D02*
X159039095Y-117156009D01*
X159039095Y-117156009D02*
X158991476Y-117108390D01*
X158991476Y-117108390D02*
X158896238Y-117060771D01*
X158896238Y-117060771D02*
X158705762Y-117060771D01*
X158705762Y-117060771D02*
X158610524Y-117108390D01*
X158610524Y-117108390D02*
X158562905Y-117156009D01*
X158562905Y-117156009D02*
X158515286Y-117251247D01*
X167794580Y-125485857D02*
X167842200Y-125533476D01*
X167842200Y-125533476D02*
X167889819Y-125676333D01*
X167889819Y-125676333D02*
X167889819Y-125771571D01*
X167889819Y-125771571D02*
X167842200Y-125914428D01*
X167842200Y-125914428D02*
X167746961Y-126009666D01*
X167746961Y-126009666D02*
X167651723Y-126057285D01*
X167651723Y-126057285D02*
X167461247Y-126104904D01*
X167461247Y-126104904D02*
X167318390Y-126104904D01*
X167318390Y-126104904D02*
X167127914Y-126057285D01*
X167127914Y-126057285D02*
X167032676Y-126009666D01*
X167032676Y-126009666D02*
X166937438Y-125914428D01*
X166937438Y-125914428D02*
X166889819Y-125771571D01*
X166889819Y-125771571D02*
X166889819Y-125676333D01*
X166889819Y-125676333D02*
X166937438Y-125533476D01*
X166937438Y-125533476D02*
X166985057Y-125485857D01*
X166985057Y-125104904D02*
X166937438Y-125057285D01*
X166937438Y-125057285D02*
X166889819Y-124962047D01*
X166889819Y-124962047D02*
X166889819Y-124723952D01*
X166889819Y-124723952D02*
X166937438Y-124628714D01*
X166937438Y-124628714D02*
X166985057Y-124581095D01*
X166985057Y-124581095D02*
X167080295Y-124533476D01*
X167080295Y-124533476D02*
X167175533Y-124533476D01*
X167175533Y-124533476D02*
X167318390Y-124581095D01*
X167318390Y-124581095D02*
X167889819Y-125152523D01*
X167889819Y-125152523D02*
X167889819Y-124533476D01*
X166889819Y-123676333D02*
X166889819Y-123866809D01*
X166889819Y-123866809D02*
X166937438Y-123962047D01*
X166937438Y-123962047D02*
X166985057Y-124009666D01*
X166985057Y-124009666D02*
X167127914Y-124104904D01*
X167127914Y-124104904D02*
X167318390Y-124152523D01*
X167318390Y-124152523D02*
X167699342Y-124152523D01*
X167699342Y-124152523D02*
X167794580Y-124104904D01*
X167794580Y-124104904D02*
X167842200Y-124057285D01*
X167842200Y-124057285D02*
X167889819Y-123962047D01*
X167889819Y-123962047D02*
X167889819Y-123771571D01*
X167889819Y-123771571D02*
X167842200Y-123676333D01*
X167842200Y-123676333D02*
X167794580Y-123628714D01*
X167794580Y-123628714D02*
X167699342Y-123581095D01*
X167699342Y-123581095D02*
X167461247Y-123581095D01*
X167461247Y-123581095D02*
X167366009Y-123628714D01*
X167366009Y-123628714D02*
X167318390Y-123676333D01*
X167318390Y-123676333D02*
X167270771Y-123771571D01*
X167270771Y-123771571D02*
X167270771Y-123962047D01*
X167270771Y-123962047D02*
X167318390Y-124057285D01*
X167318390Y-124057285D02*
X167366009Y-124104904D01*
X167366009Y-124104904D02*
X167461247Y-124152523D01*
X111342142Y-141213819D02*
X110865952Y-141213819D01*
X110865952Y-141213819D02*
X110865952Y-140213819D01*
X112199285Y-141213819D02*
X111627857Y-141213819D01*
X111913571Y-141213819D02*
X111913571Y-140213819D01*
X111913571Y-140213819D02*
X111818333Y-140356676D01*
X111818333Y-140356676D02*
X111723095Y-140451914D01*
X111723095Y-140451914D02*
X111627857Y-140499533D01*
X113104047Y-140213819D02*
X112627857Y-140213819D01*
X112627857Y-140213819D02*
X112580238Y-140690009D01*
X112580238Y-140690009D02*
X112627857Y-140642390D01*
X112627857Y-140642390D02*
X112723095Y-140594771D01*
X112723095Y-140594771D02*
X112961190Y-140594771D01*
X112961190Y-140594771D02*
X113056428Y-140642390D01*
X113056428Y-140642390D02*
X113104047Y-140690009D01*
X113104047Y-140690009D02*
X113151666Y-140785247D01*
X113151666Y-140785247D02*
X113151666Y-141023342D01*
X113151666Y-141023342D02*
X113104047Y-141118580D01*
X113104047Y-141118580D02*
X113056428Y-141166200D01*
X113056428Y-141166200D02*
X112961190Y-141213819D01*
X112961190Y-141213819D02*
X112723095Y-141213819D01*
X112723095Y-141213819D02*
X112627857Y-141166200D01*
X112627857Y-141166200D02*
X112580238Y-141118580D01*
X103762857Y-150629771D02*
X103762857Y-150029771D01*
X103762857Y-150315485D02*
X104105714Y-150315485D01*
X104105714Y-150629771D02*
X104105714Y-150029771D01*
X104648571Y-150229771D02*
X104648571Y-150629771D01*
X104505713Y-150001200D02*
X104362856Y-150429771D01*
X104362856Y-150429771D02*
X104734285Y-150429771D01*
X123762857Y-150629771D02*
X123762857Y-150029771D01*
X123762857Y-150315485D02*
X124105714Y-150315485D01*
X124105714Y-150629771D02*
X124105714Y-150029771D01*
X124677142Y-150029771D02*
X124391428Y-150029771D01*
X124391428Y-150029771D02*
X124362856Y-150315485D01*
X124362856Y-150315485D02*
X124391428Y-150286914D01*
X124391428Y-150286914D02*
X124448571Y-150258342D01*
X124448571Y-150258342D02*
X124591428Y-150258342D01*
X124591428Y-150258342D02*
X124648571Y-150286914D01*
X124648571Y-150286914D02*
X124677142Y-150315485D01*
X124677142Y-150315485D02*
X124705713Y-150372628D01*
X124705713Y-150372628D02*
X124705713Y-150515485D01*
X124705713Y-150515485D02*
X124677142Y-150572628D01*
X124677142Y-150572628D02*
X124648571Y-150601200D01*
X124648571Y-150601200D02*
X124591428Y-150629771D01*
X124591428Y-150629771D02*
X124448571Y-150629771D01*
X124448571Y-150629771D02*
X124391428Y-150601200D01*
X124391428Y-150601200D02*
X124362856Y-150572628D01*
X167634819Y-136642857D02*
X167158628Y-136976190D01*
X167634819Y-137214285D02*
X166634819Y-137214285D01*
X166634819Y-137214285D02*
X166634819Y-136833333D01*
X166634819Y-136833333D02*
X166682438Y-136738095D01*
X166682438Y-136738095D02*
X166730057Y-136690476D01*
X166730057Y-136690476D02*
X166825295Y-136642857D01*
X166825295Y-136642857D02*
X166968152Y-136642857D01*
X166968152Y-136642857D02*
X167063390Y-136690476D01*
X167063390Y-136690476D02*
X167111009Y-136738095D01*
X167111009Y-136738095D02*
X167158628Y-136833333D01*
X167158628Y-136833333D02*
X167158628Y-137214285D01*
X167634819Y-135690476D02*
X167634819Y-136261904D01*
X167634819Y-135976190D02*
X166634819Y-135976190D01*
X166634819Y-135976190D02*
X166777676Y-136071428D01*
X166777676Y-136071428D02*
X166872914Y-136166666D01*
X166872914Y-136166666D02*
X166920533Y-136261904D01*
X166634819Y-135071428D02*
X166634819Y-134976190D01*
X166634819Y-134976190D02*
X166682438Y-134880952D01*
X166682438Y-134880952D02*
X166730057Y-134833333D01*
X166730057Y-134833333D02*
X166825295Y-134785714D01*
X166825295Y-134785714D02*
X167015771Y-134738095D01*
X167015771Y-134738095D02*
X167253866Y-134738095D01*
X167253866Y-134738095D02*
X167444342Y-134785714D01*
X167444342Y-134785714D02*
X167539580Y-134833333D01*
X167539580Y-134833333D02*
X167587200Y-134880952D01*
X167587200Y-134880952D02*
X167634819Y-134976190D01*
X167634819Y-134976190D02*
X167634819Y-135071428D01*
X167634819Y-135071428D02*
X167587200Y-135166666D01*
X167587200Y-135166666D02*
X167539580Y-135214285D01*
X167539580Y-135214285D02*
X167444342Y-135261904D01*
X167444342Y-135261904D02*
X167253866Y-135309523D01*
X167253866Y-135309523D02*
X167015771Y-135309523D01*
X167015771Y-135309523D02*
X166825295Y-135261904D01*
X166825295Y-135261904D02*
X166730057Y-135214285D01*
X166730057Y-135214285D02*
X166682438Y-135166666D01*
X166682438Y-135166666D02*
X166634819Y-135071428D01*
X179204819Y-129142857D02*
X179204819Y-129619047D01*
X179204819Y-129619047D02*
X178204819Y-129619047D01*
X179204819Y-128285714D02*
X179204819Y-128857142D01*
X179204819Y-128571428D02*
X178204819Y-128571428D01*
X178204819Y-128571428D02*
X178347676Y-128666666D01*
X178347676Y-128666666D02*
X178442914Y-128761904D01*
X178442914Y-128761904D02*
X178490533Y-128857142D01*
X178204819Y-127428571D02*
X178204819Y-127619047D01*
X178204819Y-127619047D02*
X178252438Y-127714285D01*
X178252438Y-127714285D02*
X178300057Y-127761904D01*
X178300057Y-127761904D02*
X178442914Y-127857142D01*
X178442914Y-127857142D02*
X178633390Y-127904761D01*
X178633390Y-127904761D02*
X179014342Y-127904761D01*
X179014342Y-127904761D02*
X179109580Y-127857142D01*
X179109580Y-127857142D02*
X179157200Y-127809523D01*
X179157200Y-127809523D02*
X179204819Y-127714285D01*
X179204819Y-127714285D02*
X179204819Y-127523809D01*
X179204819Y-127523809D02*
X179157200Y-127428571D01*
X179157200Y-127428571D02*
X179109580Y-127380952D01*
X179109580Y-127380952D02*
X179014342Y-127333333D01*
X179014342Y-127333333D02*
X178776247Y-127333333D01*
X178776247Y-127333333D02*
X178681009Y-127380952D01*
X178681009Y-127380952D02*
X178633390Y-127428571D01*
X178633390Y-127428571D02*
X178585771Y-127523809D01*
X178585771Y-127523809D02*
X178585771Y-127714285D01*
X178585771Y-127714285D02*
X178633390Y-127809523D01*
X178633390Y-127809523D02*
X178681009Y-127857142D01*
X178681009Y-127857142D02*
X178776247Y-127904761D01*
X167859819Y-133715666D02*
X167383628Y-134048999D01*
X167859819Y-134287094D02*
X166859819Y-134287094D01*
X166859819Y-134287094D02*
X166859819Y-133906142D01*
X166859819Y-133906142D02*
X166907438Y-133810904D01*
X166907438Y-133810904D02*
X166955057Y-133763285D01*
X166955057Y-133763285D02*
X167050295Y-133715666D01*
X167050295Y-133715666D02*
X167193152Y-133715666D01*
X167193152Y-133715666D02*
X167288390Y-133763285D01*
X167288390Y-133763285D02*
X167336009Y-133810904D01*
X167336009Y-133810904D02*
X167383628Y-133906142D01*
X167383628Y-133906142D02*
X167383628Y-134287094D01*
X166955057Y-133334713D02*
X166907438Y-133287094D01*
X166907438Y-133287094D02*
X166859819Y-133191856D01*
X166859819Y-133191856D02*
X166859819Y-132953761D01*
X166859819Y-132953761D02*
X166907438Y-132858523D01*
X166907438Y-132858523D02*
X166955057Y-132810904D01*
X166955057Y-132810904D02*
X167050295Y-132763285D01*
X167050295Y-132763285D02*
X167145533Y-132763285D01*
X167145533Y-132763285D02*
X167288390Y-132810904D01*
X167288390Y-132810904D02*
X167859819Y-133382332D01*
X167859819Y-133382332D02*
X167859819Y-132763285D01*
X172166666Y-143954819D02*
X172166666Y-144669104D01*
X172166666Y-144669104D02*
X172119047Y-144811961D01*
X172119047Y-144811961D02*
X172023809Y-144907200D01*
X172023809Y-144907200D02*
X171880952Y-144954819D01*
X171880952Y-144954819D02*
X171785714Y-144954819D01*
X172547619Y-143954819D02*
X173214285Y-143954819D01*
X173214285Y-143954819D02*
X172785714Y-144954819D01*
X181762857Y-101629771D02*
X181762857Y-101029771D01*
X181762857Y-101315485D02*
X182105714Y-101315485D01*
X182105714Y-101629771D02*
X182105714Y-101029771D01*
X182334285Y-101029771D02*
X182705713Y-101029771D01*
X182705713Y-101029771D02*
X182505713Y-101258342D01*
X182505713Y-101258342D02*
X182591428Y-101258342D01*
X182591428Y-101258342D02*
X182648571Y-101286914D01*
X182648571Y-101286914D02*
X182677142Y-101315485D01*
X182677142Y-101315485D02*
X182705713Y-101372628D01*
X182705713Y-101372628D02*
X182705713Y-101515485D01*
X182705713Y-101515485D02*
X182677142Y-101572628D01*
X182677142Y-101572628D02*
X182648571Y-101601200D01*
X182648571Y-101601200D02*
X182591428Y-101629771D01*
X182591428Y-101629771D02*
X182419999Y-101629771D01*
X182419999Y-101629771D02*
X182362856Y-101601200D01*
X182362856Y-101601200D02*
X182334285Y-101572628D01*
X167833333Y-141971561D02*
X167500000Y-141495370D01*
X167261905Y-141971561D02*
X167261905Y-140971561D01*
X167261905Y-140971561D02*
X167642857Y-140971561D01*
X167642857Y-140971561D02*
X167738095Y-141019180D01*
X167738095Y-141019180D02*
X167785714Y-141066799D01*
X167785714Y-141066799D02*
X167833333Y-141162037D01*
X167833333Y-141162037D02*
X167833333Y-141304894D01*
X167833333Y-141304894D02*
X167785714Y-141400132D01*
X167785714Y-141400132D02*
X167738095Y-141447751D01*
X167738095Y-141447751D02*
X167642857Y-141495370D01*
X167642857Y-141495370D02*
X167261905Y-141495370D01*
X168166667Y-140971561D02*
X168785714Y-140971561D01*
X168785714Y-140971561D02*
X168452381Y-141352513D01*
X168452381Y-141352513D02*
X168595238Y-141352513D01*
X168595238Y-141352513D02*
X168690476Y-141400132D01*
X168690476Y-141400132D02*
X168738095Y-141447751D01*
X168738095Y-141447751D02*
X168785714Y-141542989D01*
X168785714Y-141542989D02*
X168785714Y-141781084D01*
X168785714Y-141781084D02*
X168738095Y-141876322D01*
X168738095Y-141876322D02*
X168690476Y-141923942D01*
X168690476Y-141923942D02*
X168595238Y-141971561D01*
X168595238Y-141971561D02*
X168309524Y-141971561D01*
X168309524Y-141971561D02*
X168214286Y-141923942D01*
X168214286Y-141923942D02*
X168166667Y-141876322D01*
X183004166Y-106769819D02*
X183004166Y-107484104D01*
X183004166Y-107484104D02*
X182956547Y-107626961D01*
X182956547Y-107626961D02*
X182861309Y-107722200D01*
X182861309Y-107722200D02*
X182718452Y-107769819D01*
X182718452Y-107769819D02*
X182623214Y-107769819D01*
X183432738Y-106865057D02*
X183480357Y-106817438D01*
X183480357Y-106817438D02*
X183575595Y-106769819D01*
X183575595Y-106769819D02*
X183813690Y-106769819D01*
X183813690Y-106769819D02*
X183908928Y-106817438D01*
X183908928Y-106817438D02*
X183956547Y-106865057D01*
X183956547Y-106865057D02*
X184004166Y-106960295D01*
X184004166Y-106960295D02*
X184004166Y-107055533D01*
X184004166Y-107055533D02*
X183956547Y-107198390D01*
X183956547Y-107198390D02*
X183385119Y-107769819D01*
X183385119Y-107769819D02*
X184004166Y-107769819D01*
X168333333Y-138454819D02*
X168000000Y-137978628D01*
X167761905Y-138454819D02*
X167761905Y-137454819D01*
X167761905Y-137454819D02*
X168142857Y-137454819D01*
X168142857Y-137454819D02*
X168238095Y-137502438D01*
X168238095Y-137502438D02*
X168285714Y-137550057D01*
X168285714Y-137550057D02*
X168333333Y-137645295D01*
X168333333Y-137645295D02*
X168333333Y-137788152D01*
X168333333Y-137788152D02*
X168285714Y-137883390D01*
X168285714Y-137883390D02*
X168238095Y-137931009D01*
X168238095Y-137931009D02*
X168142857Y-137978628D01*
X168142857Y-137978628D02*
X167761905Y-137978628D01*
X169190476Y-137788152D02*
X169190476Y-138454819D01*
X168952381Y-137407200D02*
X168714286Y-138121485D01*
X168714286Y-138121485D02*
X169333333Y-138121485D01*
X125912142Y-132720069D02*
X125435952Y-132720069D01*
X125435952Y-132720069D02*
X125435952Y-131720069D01*
X126769285Y-132720069D02*
X126197857Y-132720069D01*
X126483571Y-132720069D02*
X126483571Y-131720069D01*
X126483571Y-131720069D02*
X126388333Y-131862926D01*
X126388333Y-131862926D02*
X126293095Y-131958164D01*
X126293095Y-131958164D02*
X126197857Y-132005783D01*
X127721666Y-132720069D02*
X127150238Y-132720069D01*
X127435952Y-132720069D02*
X127435952Y-131720069D01*
X127435952Y-131720069D02*
X127340714Y-131862926D01*
X127340714Y-131862926D02*
X127245476Y-131958164D01*
X127245476Y-131958164D02*
X127150238Y-132005783D01*
X140988333Y-124257319D02*
X140512143Y-124257319D01*
X140512143Y-124257319D02*
X140512143Y-123257319D01*
X141226429Y-123257319D02*
X141893095Y-123257319D01*
X141893095Y-123257319D02*
X141464524Y-124257319D01*
X170954819Y-107833333D02*
X171669104Y-107833333D01*
X171669104Y-107833333D02*
X171811961Y-107880952D01*
X171811961Y-107880952D02*
X171907200Y-107976190D01*
X171907200Y-107976190D02*
X171954819Y-108119047D01*
X171954819Y-108119047D02*
X171954819Y-108214285D01*
X170954819Y-106928571D02*
X170954819Y-107119047D01*
X170954819Y-107119047D02*
X171002438Y-107214285D01*
X171002438Y-107214285D02*
X171050057Y-107261904D01*
X171050057Y-107261904D02*
X171192914Y-107357142D01*
X171192914Y-107357142D02*
X171383390Y-107404761D01*
X171383390Y-107404761D02*
X171764342Y-107404761D01*
X171764342Y-107404761D02*
X171859580Y-107357142D01*
X171859580Y-107357142D02*
X171907200Y-107309523D01*
X171907200Y-107309523D02*
X171954819Y-107214285D01*
X171954819Y-107214285D02*
X171954819Y-107023809D01*
X171954819Y-107023809D02*
X171907200Y-106928571D01*
X171907200Y-106928571D02*
X171859580Y-106880952D01*
X171859580Y-106880952D02*
X171764342Y-106833333D01*
X171764342Y-106833333D02*
X171526247Y-106833333D01*
X171526247Y-106833333D02*
X171431009Y-106880952D01*
X171431009Y-106880952D02*
X171383390Y-106928571D01*
X171383390Y-106928571D02*
X171335771Y-107023809D01*
X171335771Y-107023809D02*
X171335771Y-107214285D01*
X171335771Y-107214285D02*
X171383390Y-107309523D01*
X171383390Y-107309523D02*
X171431009Y-107357142D01*
X171431009Y-107357142D02*
X171526247Y-107404761D01*
X145865222Y-105204819D02*
X145389032Y-105204819D01*
X145389032Y-105204819D02*
X145389032Y-104204819D01*
X146722365Y-105204819D02*
X146150937Y-105204819D01*
X146436651Y-105204819D02*
X146436651Y-104204819D01*
X146436651Y-104204819D02*
X146341413Y-104347676D01*
X146341413Y-104347676D02*
X146246175Y-104442914D01*
X146246175Y-104442914D02*
X146150937Y-104490533D01*
X147198556Y-105204819D02*
X147389032Y-105204819D01*
X147389032Y-105204819D02*
X147484270Y-105157200D01*
X147484270Y-105157200D02*
X147531889Y-105109580D01*
X147531889Y-105109580D02*
X147627127Y-104966723D01*
X147627127Y-104966723D02*
X147674746Y-104776247D01*
X147674746Y-104776247D02*
X147674746Y-104395295D01*
X147674746Y-104395295D02*
X147627127Y-104300057D01*
X147627127Y-104300057D02*
X147579508Y-104252438D01*
X147579508Y-104252438D02*
X147484270Y-104204819D01*
X147484270Y-104204819D02*
X147293794Y-104204819D01*
X147293794Y-104204819D02*
X147198556Y-104252438D01*
X147198556Y-104252438D02*
X147150937Y-104300057D01*
X147150937Y-104300057D02*
X147103318Y-104395295D01*
X147103318Y-104395295D02*
X147103318Y-104633390D01*
X147103318Y-104633390D02*
X147150937Y-104728628D01*
X147150937Y-104728628D02*
X147198556Y-104776247D01*
X147198556Y-104776247D02*
X147293794Y-104823866D01*
X147293794Y-104823866D02*
X147484270Y-104823866D01*
X147484270Y-104823866D02*
X147579508Y-104776247D01*
X147579508Y-104776247D02*
X147627127Y-104728628D01*
X147627127Y-104728628D02*
X147674746Y-104633390D01*
X169261905Y-102954819D02*
X169261905Y-101954819D01*
X169833333Y-102954819D02*
X169404762Y-102383390D01*
X169833333Y-101954819D02*
X169261905Y-102526247D01*
X170214286Y-102050057D02*
X170261905Y-102002438D01*
X170261905Y-102002438D02*
X170357143Y-101954819D01*
X170357143Y-101954819D02*
X170595238Y-101954819D01*
X170595238Y-101954819D02*
X170690476Y-102002438D01*
X170690476Y-102002438D02*
X170738095Y-102050057D01*
X170738095Y-102050057D02*
X170785714Y-102145295D01*
X170785714Y-102145295D02*
X170785714Y-102240533D01*
X170785714Y-102240533D02*
X170738095Y-102383390D01*
X170738095Y-102383390D02*
X170166667Y-102954819D01*
X170166667Y-102954819D02*
X170785714Y-102954819D01*
X142497722Y-105109580D02*
X142450103Y-105157200D01*
X142450103Y-105157200D02*
X142307246Y-105204819D01*
X142307246Y-105204819D02*
X142212008Y-105204819D01*
X142212008Y-105204819D02*
X142069151Y-105157200D01*
X142069151Y-105157200D02*
X141973913Y-105061961D01*
X141973913Y-105061961D02*
X141926294Y-104966723D01*
X141926294Y-104966723D02*
X141878675Y-104776247D01*
X141878675Y-104776247D02*
X141878675Y-104633390D01*
X141878675Y-104633390D02*
X141926294Y-104442914D01*
X141926294Y-104442914D02*
X141973913Y-104347676D01*
X141973913Y-104347676D02*
X142069151Y-104252438D01*
X142069151Y-104252438D02*
X142212008Y-104204819D01*
X142212008Y-104204819D02*
X142307246Y-104204819D01*
X142307246Y-104204819D02*
X142450103Y-104252438D01*
X142450103Y-104252438D02*
X142497722Y-104300057D01*
X143354865Y-104538152D02*
X143354865Y-105204819D01*
X143116770Y-104157200D02*
X142878675Y-104871485D01*
X142878675Y-104871485D02*
X143497722Y-104871485D01*
X143926294Y-105204819D02*
X144116770Y-105204819D01*
X144116770Y-105204819D02*
X144212008Y-105157200D01*
X144212008Y-105157200D02*
X144259627Y-105109580D01*
X144259627Y-105109580D02*
X144354865Y-104966723D01*
X144354865Y-104966723D02*
X144402484Y-104776247D01*
X144402484Y-104776247D02*
X144402484Y-104395295D01*
X144402484Y-104395295D02*
X144354865Y-104300057D01*
X144354865Y-104300057D02*
X144307246Y-104252438D01*
X144307246Y-104252438D02*
X144212008Y-104204819D01*
X144212008Y-104204819D02*
X144021532Y-104204819D01*
X144021532Y-104204819D02*
X143926294Y-104252438D01*
X143926294Y-104252438D02*
X143878675Y-104300057D01*
X143878675Y-104300057D02*
X143831056Y-104395295D01*
X143831056Y-104395295D02*
X143831056Y-104633390D01*
X143831056Y-104633390D02*
X143878675Y-104728628D01*
X143878675Y-104728628D02*
X143926294Y-104776247D01*
X143926294Y-104776247D02*
X144021532Y-104823866D01*
X144021532Y-104823866D02*
X144212008Y-104823866D01*
X144212008Y-104823866D02*
X144307246Y-104776247D01*
X144307246Y-104776247D02*
X144354865Y-104728628D01*
X144354865Y-104728628D02*
X144402484Y-104633390D01*
X173704819Y-146988094D02*
X172704819Y-146988094D01*
X172704819Y-146988094D02*
X172704819Y-146749999D01*
X172704819Y-146749999D02*
X172752438Y-146607142D01*
X172752438Y-146607142D02*
X172847676Y-146511904D01*
X172847676Y-146511904D02*
X172942914Y-146464285D01*
X172942914Y-146464285D02*
X173133390Y-146416666D01*
X173133390Y-146416666D02*
X173276247Y-146416666D01*
X173276247Y-146416666D02*
X173466723Y-146464285D01*
X173466723Y-146464285D02*
X173561961Y-146511904D01*
X173561961Y-146511904D02*
X173657200Y-146607142D01*
X173657200Y-146607142D02*
X173704819Y-146749999D01*
X173704819Y-146749999D02*
X173704819Y-146988094D01*
X173038152Y-145559523D02*
X173704819Y-145559523D01*
X172657200Y-145797618D02*
X173371485Y-146035713D01*
X173371485Y-146035713D02*
X173371485Y-145416666D01*
X140998333Y-115701069D02*
X140522143Y-115701069D01*
X140522143Y-115701069D02*
X140522143Y-114701069D01*
X141760238Y-115034402D02*
X141760238Y-115701069D01*
X141522143Y-114653450D02*
X141284048Y-115367735D01*
X141284048Y-115367735D02*
X141903095Y-115367735D01*
X125668333Y-124102319D02*
X125192143Y-124102319D01*
X125192143Y-124102319D02*
X125192143Y-123102319D01*
X126144524Y-123530890D02*
X126049286Y-123483271D01*
X126049286Y-123483271D02*
X126001667Y-123435652D01*
X126001667Y-123435652D02*
X125954048Y-123340414D01*
X125954048Y-123340414D02*
X125954048Y-123292795D01*
X125954048Y-123292795D02*
X126001667Y-123197557D01*
X126001667Y-123197557D02*
X126049286Y-123149938D01*
X126049286Y-123149938D02*
X126144524Y-123102319D01*
X126144524Y-123102319D02*
X126335000Y-123102319D01*
X126335000Y-123102319D02*
X126430238Y-123149938D01*
X126430238Y-123149938D02*
X126477857Y-123197557D01*
X126477857Y-123197557D02*
X126525476Y-123292795D01*
X126525476Y-123292795D02*
X126525476Y-123340414D01*
X126525476Y-123340414D02*
X126477857Y-123435652D01*
X126477857Y-123435652D02*
X126430238Y-123483271D01*
X126430238Y-123483271D02*
X126335000Y-123530890D01*
X126335000Y-123530890D02*
X126144524Y-123530890D01*
X126144524Y-123530890D02*
X126049286Y-123578509D01*
X126049286Y-123578509D02*
X126001667Y-123626128D01*
X126001667Y-123626128D02*
X125954048Y-123721366D01*
X125954048Y-123721366D02*
X125954048Y-123911842D01*
X125954048Y-123911842D02*
X126001667Y-124007080D01*
X126001667Y-124007080D02*
X126049286Y-124054700D01*
X126049286Y-124054700D02*
X126144524Y-124102319D01*
X126144524Y-124102319D02*
X126335000Y-124102319D01*
X126335000Y-124102319D02*
X126430238Y-124054700D01*
X126430238Y-124054700D02*
X126477857Y-124007080D01*
X126477857Y-124007080D02*
X126525476Y-123911842D01*
X126525476Y-123911842D02*
X126525476Y-123721366D01*
X126525476Y-123721366D02*
X126477857Y-123626128D01*
X126477857Y-123626128D02*
X126430238Y-123578509D01*
X126430238Y-123578509D02*
X126335000Y-123530890D01*
X111582142Y-132752569D02*
X111105952Y-132752569D01*
X111105952Y-132752569D02*
X111105952Y-131752569D01*
X112439285Y-132752569D02*
X111867857Y-132752569D01*
X112153571Y-132752569D02*
X112153571Y-131752569D01*
X112153571Y-131752569D02*
X112058333Y-131895426D01*
X112058333Y-131895426D02*
X111963095Y-131990664D01*
X111963095Y-131990664D02*
X111867857Y-132038283D01*
X112820238Y-131847807D02*
X112867857Y-131800188D01*
X112867857Y-131800188D02*
X112963095Y-131752569D01*
X112963095Y-131752569D02*
X113201190Y-131752569D01*
X113201190Y-131752569D02*
X113296428Y-131800188D01*
X113296428Y-131800188D02*
X113344047Y-131847807D01*
X113344047Y-131847807D02*
X113391666Y-131943045D01*
X113391666Y-131943045D02*
X113391666Y-132038283D01*
X113391666Y-132038283D02*
X113344047Y-132181140D01*
X113344047Y-132181140D02*
X112772619Y-132752569D01*
X112772619Y-132752569D02*
X113391666Y-132752569D01*
X169333333Y-144954819D02*
X169000000Y-144478628D01*
X168761905Y-144954819D02*
X168761905Y-143954819D01*
X168761905Y-143954819D02*
X169142857Y-143954819D01*
X169142857Y-143954819D02*
X169238095Y-144002438D01*
X169238095Y-144002438D02*
X169285714Y-144050057D01*
X169285714Y-144050057D02*
X169333333Y-144145295D01*
X169333333Y-144145295D02*
X169333333Y-144288152D01*
X169333333Y-144288152D02*
X169285714Y-144383390D01*
X169285714Y-144383390D02*
X169238095Y-144431009D01*
X169238095Y-144431009D02*
X169142857Y-144478628D01*
X169142857Y-144478628D02*
X168761905Y-144478628D01*
X169809524Y-144954819D02*
X170000000Y-144954819D01*
X170000000Y-144954819D02*
X170095238Y-144907200D01*
X170095238Y-144907200D02*
X170142857Y-144859580D01*
X170142857Y-144859580D02*
X170238095Y-144716723D01*
X170238095Y-144716723D02*
X170285714Y-144526247D01*
X170285714Y-144526247D02*
X170285714Y-144145295D01*
X170285714Y-144145295D02*
X170238095Y-144050057D01*
X170238095Y-144050057D02*
X170190476Y-144002438D01*
X170190476Y-144002438D02*
X170095238Y-143954819D01*
X170095238Y-143954819D02*
X169904762Y-143954819D01*
X169904762Y-143954819D02*
X169809524Y-144002438D01*
X169809524Y-144002438D02*
X169761905Y-144050057D01*
X169761905Y-144050057D02*
X169714286Y-144145295D01*
X169714286Y-144145295D02*
X169714286Y-144383390D01*
X169714286Y-144383390D02*
X169761905Y-144478628D01*
X169761905Y-144478628D02*
X169809524Y-144526247D01*
X169809524Y-144526247D02*
X169904762Y-144573866D01*
X169904762Y-144573866D02*
X170095238Y-144573866D01*
X170095238Y-144573866D02*
X170190476Y-144526247D01*
X170190476Y-144526247D02*
X170238095Y-144478628D01*
X170238095Y-144478628D02*
X170285714Y-144383390D01*
X155124905Y-115442319D02*
X155124905Y-114442319D01*
X155696333Y-115442319D02*
X155267762Y-114870890D01*
X155696333Y-114442319D02*
X155124905Y-115013747D01*
X156029667Y-114442319D02*
X156648714Y-114442319D01*
X156648714Y-114442319D02*
X156315381Y-114823271D01*
X156315381Y-114823271D02*
X156458238Y-114823271D01*
X156458238Y-114823271D02*
X156553476Y-114870890D01*
X156553476Y-114870890D02*
X156601095Y-114918509D01*
X156601095Y-114918509D02*
X156648714Y-115013747D01*
X156648714Y-115013747D02*
X156648714Y-115251842D01*
X156648714Y-115251842D02*
X156601095Y-115347080D01*
X156601095Y-115347080D02*
X156553476Y-115394700D01*
X156553476Y-115394700D02*
X156458238Y-115442319D01*
X156458238Y-115442319D02*
X156172524Y-115442319D01*
X156172524Y-115442319D02*
X156077286Y-115394700D01*
X156077286Y-115394700D02*
X156029667Y-115347080D01*
X158056333Y-145387819D02*
X157723000Y-144911628D01*
X157484905Y-145387819D02*
X157484905Y-144387819D01*
X157484905Y-144387819D02*
X157865857Y-144387819D01*
X157865857Y-144387819D02*
X157961095Y-144435438D01*
X157961095Y-144435438D02*
X158008714Y-144483057D01*
X158008714Y-144483057D02*
X158056333Y-144578295D01*
X158056333Y-144578295D02*
X158056333Y-144721152D01*
X158056333Y-144721152D02*
X158008714Y-144816390D01*
X158008714Y-144816390D02*
X157961095Y-144864009D01*
X157961095Y-144864009D02*
X157865857Y-144911628D01*
X157865857Y-144911628D02*
X157484905Y-144911628D01*
X159008714Y-145387819D02*
X158437286Y-145387819D01*
X158723000Y-145387819D02*
X158723000Y-144387819D01*
X158723000Y-144387819D02*
X158627762Y-144530676D01*
X158627762Y-144530676D02*
X158532524Y-144625914D01*
X158532524Y-144625914D02*
X158437286Y-144673533D01*
X140882142Y-141343819D02*
X140405952Y-141343819D01*
X140405952Y-141343819D02*
X140405952Y-140343819D01*
X141739285Y-141343819D02*
X141167857Y-141343819D01*
X141453571Y-141343819D02*
X141453571Y-140343819D01*
X141453571Y-140343819D02*
X141358333Y-140486676D01*
X141358333Y-140486676D02*
X141263095Y-140581914D01*
X141263095Y-140581914D02*
X141167857Y-140629533D01*
X142072619Y-140343819D02*
X142691666Y-140343819D01*
X142691666Y-140343819D02*
X142358333Y-140724771D01*
X142358333Y-140724771D02*
X142501190Y-140724771D01*
X142501190Y-140724771D02*
X142596428Y-140772390D01*
X142596428Y-140772390D02*
X142644047Y-140820009D01*
X142644047Y-140820009D02*
X142691666Y-140915247D01*
X142691666Y-140915247D02*
X142691666Y-141153342D01*
X142691666Y-141153342D02*
X142644047Y-141248580D01*
X142644047Y-141248580D02*
X142596428Y-141296200D01*
X142596428Y-141296200D02*
X142501190Y-141343819D01*
X142501190Y-141343819D02*
X142215476Y-141343819D01*
X142215476Y-141343819D02*
X142120238Y-141296200D01*
X142120238Y-141296200D02*
X142072619Y-141248580D01*
X157738095Y-141454819D02*
X157738095Y-142264342D01*
X157738095Y-142264342D02*
X157785714Y-142359580D01*
X157785714Y-142359580D02*
X157833333Y-142407200D01*
X157833333Y-142407200D02*
X157928571Y-142454819D01*
X157928571Y-142454819D02*
X158119047Y-142454819D01*
X158119047Y-142454819D02*
X158214285Y-142407200D01*
X158214285Y-142407200D02*
X158261904Y-142359580D01*
X158261904Y-142359580D02*
X158309523Y-142264342D01*
X158309523Y-142264342D02*
X158309523Y-141454819D01*
X159309523Y-142454819D02*
X158738095Y-142454819D01*
X159023809Y-142454819D02*
X159023809Y-141454819D01*
X159023809Y-141454819D02*
X158928571Y-141597676D01*
X158928571Y-141597676D02*
X158833333Y-141692914D01*
X158833333Y-141692914D02*
X158738095Y-141740533D01*
X125872142Y-141253819D02*
X125395952Y-141253819D01*
X125395952Y-141253819D02*
X125395952Y-140253819D01*
X126729285Y-141253819D02*
X126157857Y-141253819D01*
X126443571Y-141253819D02*
X126443571Y-140253819D01*
X126443571Y-140253819D02*
X126348333Y-140396676D01*
X126348333Y-140396676D02*
X126253095Y-140491914D01*
X126253095Y-140491914D02*
X126157857Y-140539533D01*
X127586428Y-140587152D02*
X127586428Y-141253819D01*
X127348333Y-140206200D02*
X127110238Y-140920485D01*
X127110238Y-140920485D02*
X127729285Y-140920485D01*
X126128333Y-115378569D02*
X125652143Y-115378569D01*
X125652143Y-115378569D02*
X125652143Y-114378569D01*
X126937857Y-114378569D02*
X126461667Y-114378569D01*
X126461667Y-114378569D02*
X126414048Y-114854759D01*
X126414048Y-114854759D02*
X126461667Y-114807140D01*
X126461667Y-114807140D02*
X126556905Y-114759521D01*
X126556905Y-114759521D02*
X126795000Y-114759521D01*
X126795000Y-114759521D02*
X126890238Y-114807140D01*
X126890238Y-114807140D02*
X126937857Y-114854759D01*
X126937857Y-114854759D02*
X126985476Y-114949997D01*
X126985476Y-114949997D02*
X126985476Y-115188092D01*
X126985476Y-115188092D02*
X126937857Y-115283330D01*
X126937857Y-115283330D02*
X126890238Y-115330950D01*
X126890238Y-115330950D02*
X126795000Y-115378569D01*
X126795000Y-115378569D02*
X126556905Y-115378569D01*
X126556905Y-115378569D02*
X126461667Y-115330950D01*
X126461667Y-115330950D02*
X126414048Y-115283330D01*
X152247722Y-105274819D02*
X151771532Y-105274819D01*
X151771532Y-105274819D02*
X151771532Y-104274819D01*
X153104865Y-105274819D02*
X152533437Y-105274819D01*
X152819151Y-105274819D02*
X152819151Y-104274819D01*
X152819151Y-104274819D02*
X152723913Y-104417676D01*
X152723913Y-104417676D02*
X152628675Y-104512914D01*
X152628675Y-104512914D02*
X152533437Y-104560533D01*
X153676294Y-104703390D02*
X153581056Y-104655771D01*
X153581056Y-104655771D02*
X153533437Y-104608152D01*
X153533437Y-104608152D02*
X153485818Y-104512914D01*
X153485818Y-104512914D02*
X153485818Y-104465295D01*
X153485818Y-104465295D02*
X153533437Y-104370057D01*
X153533437Y-104370057D02*
X153581056Y-104322438D01*
X153581056Y-104322438D02*
X153676294Y-104274819D01*
X153676294Y-104274819D02*
X153866770Y-104274819D01*
X153866770Y-104274819D02*
X153962008Y-104322438D01*
X153962008Y-104322438D02*
X154009627Y-104370057D01*
X154009627Y-104370057D02*
X154057246Y-104465295D01*
X154057246Y-104465295D02*
X154057246Y-104512914D01*
X154057246Y-104512914D02*
X154009627Y-104608152D01*
X154009627Y-104608152D02*
X153962008Y-104655771D01*
X153962008Y-104655771D02*
X153866770Y-104703390D01*
X153866770Y-104703390D02*
X153676294Y-104703390D01*
X153676294Y-104703390D02*
X153581056Y-104751009D01*
X153581056Y-104751009D02*
X153533437Y-104798628D01*
X153533437Y-104798628D02*
X153485818Y-104893866D01*
X153485818Y-104893866D02*
X153485818Y-105084342D01*
X153485818Y-105084342D02*
X153533437Y-105179580D01*
X153533437Y-105179580D02*
X153581056Y-105227200D01*
X153581056Y-105227200D02*
X153676294Y-105274819D01*
X153676294Y-105274819D02*
X153866770Y-105274819D01*
X153866770Y-105274819D02*
X153962008Y-105227200D01*
X153962008Y-105227200D02*
X154009627Y-105179580D01*
X154009627Y-105179580D02*
X154057246Y-105084342D01*
X154057246Y-105084342D02*
X154057246Y-104893866D01*
X154057246Y-104893866D02*
X154009627Y-104798628D01*
X154009627Y-104798628D02*
X153962008Y-104751009D01*
X153962008Y-104751009D02*
X153866770Y-104703390D01*
X155064905Y-124208819D02*
X155064905Y-123208819D01*
X155636333Y-124208819D02*
X155207762Y-123637390D01*
X155636333Y-123208819D02*
X155064905Y-123780247D01*
X156493476Y-123542152D02*
X156493476Y-124208819D01*
X156255381Y-123161200D02*
X156017286Y-123875485D01*
X156017286Y-123875485D02*
X156636333Y-123875485D01*
X158238095Y-133954819D02*
X158238095Y-134764342D01*
X158238095Y-134764342D02*
X158285714Y-134859580D01*
X158285714Y-134859580D02*
X158333333Y-134907200D01*
X158333333Y-134907200D02*
X158428571Y-134954819D01*
X158428571Y-134954819D02*
X158619047Y-134954819D01*
X158619047Y-134954819D02*
X158714285Y-134907200D01*
X158714285Y-134907200D02*
X158761904Y-134859580D01*
X158761904Y-134859580D02*
X158809523Y-134764342D01*
X158809523Y-134764342D02*
X158809523Y-133954819D01*
X159238095Y-134050057D02*
X159285714Y-134002438D01*
X159285714Y-134002438D02*
X159380952Y-133954819D01*
X159380952Y-133954819D02*
X159619047Y-133954819D01*
X159619047Y-133954819D02*
X159714285Y-134002438D01*
X159714285Y-134002438D02*
X159761904Y-134050057D01*
X159761904Y-134050057D02*
X159809523Y-134145295D01*
X159809523Y-134145295D02*
X159809523Y-134240533D01*
X159809523Y-134240533D02*
X159761904Y-134383390D01*
X159761904Y-134383390D02*
X159190476Y-134954819D01*
X159190476Y-134954819D02*
X159809523Y-134954819D01*
X167822333Y-111003819D02*
X167489000Y-110527628D01*
X167250905Y-111003819D02*
X167250905Y-110003819D01*
X167250905Y-110003819D02*
X167631857Y-110003819D01*
X167631857Y-110003819D02*
X167727095Y-110051438D01*
X167727095Y-110051438D02*
X167774714Y-110099057D01*
X167774714Y-110099057D02*
X167822333Y-110194295D01*
X167822333Y-110194295D02*
X167822333Y-110337152D01*
X167822333Y-110337152D02*
X167774714Y-110432390D01*
X167774714Y-110432390D02*
X167727095Y-110480009D01*
X167727095Y-110480009D02*
X167631857Y-110527628D01*
X167631857Y-110527628D02*
X167250905Y-110527628D01*
X168155667Y-110003819D02*
X168822333Y-110003819D01*
X168822333Y-110003819D02*
X168393762Y-111003819D01*
X158769580Y-139746166D02*
X158817200Y-139793785D01*
X158817200Y-139793785D02*
X158864819Y-139936642D01*
X158864819Y-139936642D02*
X158864819Y-140031880D01*
X158864819Y-140031880D02*
X158817200Y-140174737D01*
X158817200Y-140174737D02*
X158721961Y-140269975D01*
X158721961Y-140269975D02*
X158626723Y-140317594D01*
X158626723Y-140317594D02*
X158436247Y-140365213D01*
X158436247Y-140365213D02*
X158293390Y-140365213D01*
X158293390Y-140365213D02*
X158102914Y-140317594D01*
X158102914Y-140317594D02*
X158007676Y-140269975D01*
X158007676Y-140269975D02*
X157912438Y-140174737D01*
X157912438Y-140174737D02*
X157864819Y-140031880D01*
X157864819Y-140031880D02*
X157864819Y-139936642D01*
X157864819Y-139936642D02*
X157912438Y-139793785D01*
X157912438Y-139793785D02*
X157960057Y-139746166D01*
X157960057Y-139365213D02*
X157912438Y-139317594D01*
X157912438Y-139317594D02*
X157864819Y-139222356D01*
X157864819Y-139222356D02*
X157864819Y-138984261D01*
X157864819Y-138984261D02*
X157912438Y-138889023D01*
X157912438Y-138889023D02*
X157960057Y-138841404D01*
X157960057Y-138841404D02*
X158055295Y-138793785D01*
X158055295Y-138793785D02*
X158150533Y-138793785D01*
X158150533Y-138793785D02*
X158293390Y-138841404D01*
X158293390Y-138841404D02*
X158864819Y-139412832D01*
X158864819Y-139412832D02*
X158864819Y-138793785D01*
X160088333Y-148786819D02*
X159755000Y-148310628D01*
X159516905Y-148786819D02*
X159516905Y-147786819D01*
X159516905Y-147786819D02*
X159897857Y-147786819D01*
X159897857Y-147786819D02*
X159993095Y-147834438D01*
X159993095Y-147834438D02*
X160040714Y-147882057D01*
X160040714Y-147882057D02*
X160088333Y-147977295D01*
X160088333Y-147977295D02*
X160088333Y-148120152D01*
X160088333Y-148120152D02*
X160040714Y-148215390D01*
X160040714Y-148215390D02*
X159993095Y-148263009D01*
X159993095Y-148263009D02*
X159897857Y-148310628D01*
X159897857Y-148310628D02*
X159516905Y-148310628D01*
X160659762Y-148215390D02*
X160564524Y-148167771D01*
X160564524Y-148167771D02*
X160516905Y-148120152D01*
X160516905Y-148120152D02*
X160469286Y-148024914D01*
X160469286Y-148024914D02*
X160469286Y-147977295D01*
X160469286Y-147977295D02*
X160516905Y-147882057D01*
X160516905Y-147882057D02*
X160564524Y-147834438D01*
X160564524Y-147834438D02*
X160659762Y-147786819D01*
X160659762Y-147786819D02*
X160850238Y-147786819D01*
X160850238Y-147786819D02*
X160945476Y-147834438D01*
X160945476Y-147834438D02*
X160993095Y-147882057D01*
X160993095Y-147882057D02*
X161040714Y-147977295D01*
X161040714Y-147977295D02*
X161040714Y-148024914D01*
X161040714Y-148024914D02*
X160993095Y-148120152D01*
X160993095Y-148120152D02*
X160945476Y-148167771D01*
X160945476Y-148167771D02*
X160850238Y-148215390D01*
X160850238Y-148215390D02*
X160659762Y-148215390D01*
X160659762Y-148215390D02*
X160564524Y-148263009D01*
X160564524Y-148263009D02*
X160516905Y-148310628D01*
X160516905Y-148310628D02*
X160469286Y-148405866D01*
X160469286Y-148405866D02*
X160469286Y-148596342D01*
X160469286Y-148596342D02*
X160516905Y-148691580D01*
X160516905Y-148691580D02*
X160564524Y-148739200D01*
X160564524Y-148739200D02*
X160659762Y-148786819D01*
X160659762Y-148786819D02*
X160850238Y-148786819D01*
X160850238Y-148786819D02*
X160945476Y-148739200D01*
X160945476Y-148739200D02*
X160993095Y-148691580D01*
X160993095Y-148691580D02*
X161040714Y-148596342D01*
X161040714Y-148596342D02*
X161040714Y-148405866D01*
X161040714Y-148405866D02*
X160993095Y-148310628D01*
X160993095Y-148310628D02*
X160945476Y-148263009D01*
X160945476Y-148263009D02*
X160850238Y-148215390D01*
X141202142Y-132907569D02*
X140725952Y-132907569D01*
X140725952Y-132907569D02*
X140725952Y-131907569D01*
X142059285Y-132907569D02*
X141487857Y-132907569D01*
X141773571Y-132907569D02*
X141773571Y-131907569D01*
X141773571Y-131907569D02*
X141678333Y-132050426D01*
X141678333Y-132050426D02*
X141583095Y-132145664D01*
X141583095Y-132145664D02*
X141487857Y-132193283D01*
X142678333Y-131907569D02*
X142773571Y-131907569D01*
X142773571Y-131907569D02*
X142868809Y-131955188D01*
X142868809Y-131955188D02*
X142916428Y-132002807D01*
X142916428Y-132002807D02*
X142964047Y-132098045D01*
X142964047Y-132098045D02*
X143011666Y-132288521D01*
X143011666Y-132288521D02*
X143011666Y-132526616D01*
X143011666Y-132526616D02*
X142964047Y-132717092D01*
X142964047Y-132717092D02*
X142916428Y-132812330D01*
X142916428Y-132812330D02*
X142868809Y-132859950D01*
X142868809Y-132859950D02*
X142773571Y-132907569D01*
X142773571Y-132907569D02*
X142678333Y-132907569D01*
X142678333Y-132907569D02*
X142583095Y-132859950D01*
X142583095Y-132859950D02*
X142535476Y-132812330D01*
X142535476Y-132812330D02*
X142487857Y-132717092D01*
X142487857Y-132717092D02*
X142440238Y-132526616D01*
X142440238Y-132526616D02*
X142440238Y-132288521D01*
X142440238Y-132288521D02*
X142487857Y-132098045D01*
X142487857Y-132098045D02*
X142535476Y-132002807D01*
X142535476Y-132002807D02*
X142583095Y-131955188D01*
X142583095Y-131955188D02*
X142678333Y-131907569D01*
D11*
G04 #@! TO.C,K6*
X147005000Y-147995000D02*
X147005000Y-141695000D01*
X147705000Y-141695000D02*
X147005000Y-141695000D01*
X147705000Y-147995000D02*
X147005000Y-147995000D01*
X148905000Y-141695000D02*
X149905000Y-141695000D01*
X149905000Y-147995000D02*
X148905000Y-147995000D01*
X151105000Y-141695000D02*
X152105000Y-141695000D01*
X152105000Y-147995000D02*
X151105000Y-147995000D01*
X153305000Y-141695000D02*
X155305000Y-141695000D01*
X155305000Y-144495000D02*
X155305000Y-145195000D01*
X155305000Y-145195000D02*
X156505000Y-145195000D01*
X155305000Y-147995000D02*
X153305000Y-147995000D01*
X155705000Y-144495000D02*
X156105000Y-145195000D01*
X155905000Y-144495000D02*
X155905000Y-143395000D01*
X155905000Y-145195000D02*
X155905000Y-146295000D01*
X156505000Y-141595000D02*
X157305000Y-141595000D01*
X156505000Y-141695000D02*
X157205000Y-141695000D01*
X156505000Y-144495000D02*
X155305000Y-144495000D01*
X156505000Y-145195000D02*
X156505000Y-144495000D01*
X157205000Y-141695000D02*
X157205000Y-147995000D01*
X157205000Y-147995000D02*
X156505000Y-147995000D01*
X157305000Y-141595000D02*
X157305000Y-142295000D01*
G04 #@! TO.C,L9*
X101930000Y-124672500D02*
X101930000Y-131262500D01*
X101930000Y-124672500D02*
X107581000Y-124672500D01*
X101930000Y-131262500D02*
X107581000Y-131262500D01*
X110489000Y-124672500D02*
X116140000Y-124672500D01*
X110489000Y-131262500D02*
X116140000Y-131262500D01*
X116140000Y-124672500D02*
X116140000Y-131262500D01*
G04 #@! TO.C,C27*
X169567000Y-111217580D02*
X169567000Y-110936420D01*
X170587000Y-111217580D02*
X170587000Y-110936420D01*
G04 #@! TO.C,J8*
X135250000Y-102500000D02*
X136050000Y-102500000D01*
X135250000Y-102700000D02*
X135250000Y-102500000D01*
X135450000Y-105500000D02*
X135250000Y-105300000D01*
X136050000Y-105500000D02*
X135450000Y-105500000D01*
X136050000Y-105500000D02*
X136050000Y-106000000D01*
X137450000Y-102500000D02*
X138250000Y-102500000D01*
X137450000Y-105500000D02*
X137450000Y-106000000D01*
X138250000Y-102500000D02*
X138250000Y-102700000D01*
X138250000Y-105300000D02*
X138250000Y-105500000D01*
X138250000Y-105500000D02*
X137450000Y-105500000D01*
G04 #@! TO.C,L1*
X131840000Y-107410000D02*
X131840000Y-114000000D01*
X131840000Y-107410000D02*
X137491000Y-107410000D01*
X131840000Y-114000000D02*
X137491000Y-114000000D01*
X140399000Y-107410000D02*
X146050000Y-107410000D01*
X140399000Y-114000000D02*
X146050000Y-114000000D01*
X146050000Y-107410000D02*
X146050000Y-114000000D01*
G04 #@! TO.C,K1*
X147105000Y-113745000D02*
X147105000Y-107445000D01*
X147805000Y-107445000D02*
X147105000Y-107445000D01*
X147805000Y-113745000D02*
X147105000Y-113745000D01*
X149005000Y-107445000D02*
X150005000Y-107445000D01*
X150005000Y-113745000D02*
X149005000Y-113745000D01*
X151205000Y-107445000D02*
X152205000Y-107445000D01*
X152205000Y-113745000D02*
X151205000Y-113745000D01*
X153405000Y-107445000D02*
X155405000Y-107445000D01*
X155405000Y-110245000D02*
X155405000Y-110945000D01*
X155405000Y-110945000D02*
X156605000Y-110945000D01*
X155405000Y-113745000D02*
X153405000Y-113745000D01*
X155805000Y-110245000D02*
X156205000Y-110945000D01*
X156005000Y-110245000D02*
X156005000Y-109145000D01*
X156005000Y-110945000D02*
X156005000Y-112045000D01*
X156605000Y-107345000D02*
X157405000Y-107345000D01*
X156605000Y-107445000D02*
X157305000Y-107445000D01*
X156605000Y-110245000D02*
X155405000Y-110245000D01*
X156605000Y-110945000D02*
X156605000Y-110245000D01*
X157305000Y-107445000D02*
X157305000Y-113745000D01*
X157305000Y-113745000D02*
X156605000Y-113745000D01*
X157405000Y-107345000D02*
X157405000Y-108045000D01*
G04 #@! TO.C,L17*
X174388567Y-117615000D02*
G75*
G02*
X171581433Y-117615000I-1403567J0D01*
G01*
X171581433Y-117615000D02*
G75*
G02*
X174388567Y-117615000I1403567J0D01*
G01*
X177586087Y-117615000D02*
G75*
G02*
X168383913Y-117615000I-4601087J0D01*
G01*
X168383913Y-117615000D02*
G75*
G02*
X177586087Y-117615000I4601087J0D01*
G01*
G04 #@! TO.C,L2*
X116880000Y-107410000D02*
X116880000Y-114000000D01*
X116880000Y-107410000D02*
X122531000Y-107410000D01*
X116880000Y-114000000D02*
X122531000Y-114000000D01*
X125439000Y-107410000D02*
X131090000Y-107410000D01*
X125439000Y-114000000D02*
X131090000Y-114000000D01*
X131090000Y-107410000D02*
X131090000Y-114000000D01*
G04 #@! TO.C,L3*
X102000000Y-107410000D02*
X102000000Y-114000000D01*
X102000000Y-107410000D02*
X107651000Y-107410000D01*
X102000000Y-114000000D02*
X107651000Y-114000000D01*
X110559000Y-107410000D02*
X116210000Y-107410000D01*
X110559000Y-114000000D02*
X116210000Y-114000000D01*
X116210000Y-107410000D02*
X116210000Y-114000000D01*
G04 #@! TO.C,K5*
X146995000Y-139432500D02*
X146995000Y-133132500D01*
X147695000Y-133132500D02*
X146995000Y-133132500D01*
X147695000Y-139432500D02*
X146995000Y-139432500D01*
X148895000Y-133132500D02*
X149895000Y-133132500D01*
X149895000Y-139432500D02*
X148895000Y-139432500D01*
X151095000Y-133132500D02*
X152095000Y-133132500D01*
X152095000Y-139432500D02*
X151095000Y-139432500D01*
X153295000Y-133132500D02*
X155295000Y-133132500D01*
X155295000Y-135932500D02*
X155295000Y-136632500D01*
X155295000Y-136632500D02*
X156495000Y-136632500D01*
X155295000Y-139432500D02*
X153295000Y-139432500D01*
X155695000Y-135932500D02*
X156095000Y-136632500D01*
X155895000Y-135932500D02*
X155895000Y-134832500D01*
X155895000Y-136632500D02*
X155895000Y-137732500D01*
X156495000Y-133032500D02*
X157295000Y-133032500D01*
X156495000Y-133132500D02*
X157195000Y-133132500D01*
X156495000Y-135932500D02*
X155295000Y-135932500D01*
X156495000Y-136632500D02*
X156495000Y-135932500D01*
X157195000Y-133132500D02*
X157195000Y-139432500D01*
X157195000Y-139432500D02*
X156495000Y-139432500D01*
X157295000Y-133032500D02*
X157295000Y-133732500D01*
G04 #@! TO.C,U3*
X162355000Y-123325000D02*
X160405000Y-123325000D01*
X162355000Y-123325000D02*
X164305000Y-123325000D01*
X162355000Y-133445000D02*
X160405000Y-133445000D01*
X162355000Y-133445000D02*
X164305000Y-133445000D01*
X165295000Y-133720000D02*
X164815000Y-133720000D01*
X165055000Y-133390000D01*
X165295000Y-133720000D01*
G36*
X165295000Y-133720000D02*
G01*
X164815000Y-133720000D01*
X165055000Y-133390000D01*
X165295000Y-133720000D01*
G37*
G04 #@! TO.C,C3*
X163264420Y-144265000D02*
X163545580Y-144265000D01*
X163264420Y-145285000D02*
X163545580Y-145285000D01*
G04 #@! TO.C,R11*
X176977500Y-147262742D02*
X176977500Y-147737258D01*
X178022500Y-147262742D02*
X178022500Y-147737258D01*
G04 #@! TO.C,C47*
X156165580Y-102490000D02*
X155884420Y-102490000D01*
X156165580Y-103510000D02*
X155884420Y-103510000D01*
G04 #@! TO.C,C48*
X149640580Y-102490000D02*
X149359420Y-102490000D01*
X149640580Y-103510000D02*
X149359420Y-103510000D01*
G04 #@! TO.C,J3*
X180577500Y-127955000D02*
X180577500Y-128455000D01*
X180577500Y-128455000D02*
X181077500Y-128205000D01*
X181077500Y-128205000D02*
X180577500Y-127955000D01*
X181627500Y-127365000D02*
X181627500Y-126255000D01*
X181627500Y-130155000D02*
X181627500Y-129045000D01*
X184877500Y-127365000D02*
X184877500Y-126255000D01*
X184877500Y-130155000D02*
X184877500Y-129045000D01*
G04 #@! TO.C,L6*
X101930000Y-116011250D02*
X101930000Y-122601250D01*
X101930000Y-116011250D02*
X107581000Y-116011250D01*
X101930000Y-122601250D02*
X107581000Y-122601250D01*
X110489000Y-116011250D02*
X116140000Y-116011250D01*
X110489000Y-122601250D02*
X116140000Y-122601250D01*
X116140000Y-116011250D02*
X116140000Y-122601250D01*
G04 #@! TO.C,C6*
X158589000Y-118467437D02*
X158589000Y-119103000D01*
X158589000Y-118467437D02*
X159653437Y-117403000D01*
X158589000Y-121858563D02*
X158589000Y-121223000D01*
X158589000Y-121858563D02*
X159653437Y-122923000D01*
X159653437Y-117403000D02*
X164109000Y-117403000D01*
X159653437Y-122923000D02*
X164109000Y-122923000D01*
X164109000Y-117403000D02*
X164109000Y-119103000D01*
X164109000Y-122923000D02*
X164109000Y-121223000D01*
G04 #@! TO.C,C26*
X166775000Y-127858420D02*
X166775000Y-128139580D01*
X167795000Y-127858420D02*
X167795000Y-128139580D01*
G04 #@! TO.C,L15*
X101880000Y-141919000D02*
X101880000Y-148509000D01*
X101880000Y-141919000D02*
X107531000Y-141919000D01*
X101880000Y-148509000D02*
X107531000Y-148509000D01*
X110439000Y-141919000D02*
X116090000Y-141919000D01*
X110439000Y-148509000D02*
X116090000Y-148509000D01*
X116090000Y-141919000D02*
X116090000Y-148509000D01*
G04 #@! TO.C,R10*
X165227500Y-136087742D02*
X165227500Y-136562258D01*
X166272500Y-136087742D02*
X166272500Y-136562258D01*
G04 #@! TO.C,L16*
X177676087Y-129845000D02*
G75*
G02*
X168473913Y-129845000I-4601087J0D01*
G01*
X168473913Y-129845000D02*
G75*
G02*
X177676087Y-129845000I4601087J0D01*
G01*
X174478567Y-129845000D02*
G75*
G02*
X171671433Y-129845000I-1403567J0D01*
G01*
X171671433Y-129845000D02*
G75*
G02*
X174478567Y-129845000I1403567J0D01*
G01*
G04 #@! TO.C,R2*
X166762500Y-130935742D02*
X166762500Y-131410258D01*
X167807500Y-130935742D02*
X167807500Y-131410258D01*
G04 #@! TO.C,J7*
X169940000Y-138140000D02*
X169940000Y-142860000D01*
X169940000Y-140250000D02*
X170550000Y-140250000D01*
X169940000Y-141550000D02*
X170550000Y-141550000D01*
X169940000Y-142860000D02*
X176060000Y-142860000D01*
X170550000Y-138750000D02*
X170550000Y-142250000D01*
X170550000Y-142250000D02*
X172500000Y-142250000D01*
X172500000Y-142250000D02*
X172500000Y-142860000D01*
X172900000Y-139250000D02*
X172900000Y-138750000D01*
X173000000Y-138750000D02*
X173000000Y-139250000D01*
X173100000Y-138750000D02*
X173100000Y-139250000D01*
X173100000Y-139250000D02*
X172900000Y-139250000D01*
X173500000Y-142250000D02*
X175450000Y-142250000D01*
X173500000Y-142860000D02*
X173500000Y-142250000D01*
X174300000Y-142860000D02*
X174300000Y-143060000D01*
X174300000Y-142960000D02*
X174600000Y-142960000D01*
X174300000Y-143060000D02*
X174600000Y-143060000D01*
X174600000Y-143060000D02*
X174600000Y-142860000D01*
X175110000Y-143160000D02*
X176360000Y-143160000D01*
X175450000Y-138750000D02*
X170550000Y-138750000D01*
X175450000Y-142250000D02*
X175450000Y-138750000D01*
X176060000Y-138140000D02*
X169940000Y-138140000D01*
X176060000Y-140250000D02*
X175450000Y-140250000D01*
X176060000Y-141550000D02*
X175450000Y-141550000D01*
X176060000Y-142860000D02*
X176060000Y-138140000D01*
X176360000Y-143160000D02*
X176360000Y-141910000D01*
G04 #@! TO.C,R3*
X165500500Y-141516742D02*
X165500500Y-141991258D01*
X166545500Y-141516742D02*
X166545500Y-141991258D01*
G04 #@! TO.C,J2*
X180577500Y-112145000D02*
X180577500Y-112645000D01*
X180577500Y-112645000D02*
X181077500Y-112395000D01*
X181077500Y-112395000D02*
X180577500Y-112145000D01*
X181627500Y-111555000D02*
X181627500Y-110445000D01*
X181627500Y-114345000D02*
X181627500Y-113235000D01*
X184877500Y-111555000D02*
X184877500Y-110445000D01*
X184877500Y-114345000D02*
X184877500Y-113235000D01*
G04 #@! TO.C,R4*
X167022258Y-138732500D02*
X166547742Y-138732500D01*
X167022258Y-139777500D02*
X166547742Y-139777500D01*
G04 #@! TO.C,L11*
X116830000Y-133315250D02*
X116830000Y-139905250D01*
X116830000Y-133315250D02*
X122481000Y-133315250D01*
X116830000Y-139905250D02*
X122481000Y-139905250D01*
X125389000Y-133315250D02*
X131040000Y-133315250D01*
X125389000Y-139905250D02*
X131040000Y-139905250D01*
X131040000Y-133315250D02*
X131040000Y-139905250D01*
G04 #@! TO.C,L7*
X131770000Y-124642500D02*
X131770000Y-131232500D01*
X131770000Y-124642500D02*
X137421000Y-124642500D01*
X131770000Y-131232500D02*
X137421000Y-131232500D01*
X140329000Y-124642500D02*
X145980000Y-124642500D01*
X140329000Y-131232500D02*
X145980000Y-131232500D01*
X145980000Y-124642500D02*
X145980000Y-131232500D01*
G04 #@! TO.C,J6*
X172693000Y-101153000D02*
X172693000Y-111273000D01*
X172693000Y-111273000D02*
X178663000Y-111273000D01*
X173453000Y-101913000D02*
X173453000Y-106213000D01*
X173453000Y-110513000D02*
X173453000Y-106213000D01*
X176403000Y-101163000D02*
X176403000Y-101913000D01*
X176403000Y-101913000D02*
X173453000Y-101913000D01*
X176403000Y-110513000D02*
X173453000Y-110513000D01*
X176403000Y-111263000D02*
X176403000Y-110513000D01*
X177903000Y-101163000D02*
X177903000Y-102963000D01*
X177903000Y-102963000D02*
X178653000Y-102963000D01*
X177903000Y-104463000D02*
X177903000Y-107963000D01*
X177903000Y-107963000D02*
X178653000Y-107963000D01*
X177903000Y-109463000D02*
X177903000Y-111263000D01*
X177903000Y-111263000D02*
X178653000Y-111263000D01*
X178653000Y-101163000D02*
X177903000Y-101163000D01*
X178653000Y-102963000D02*
X178653000Y-101163000D01*
X178653000Y-104463000D02*
X177903000Y-104463000D01*
X178653000Y-107963000D02*
X178653000Y-104463000D01*
X178653000Y-109463000D02*
X177903000Y-109463000D01*
X178653000Y-111263000D02*
X178653000Y-109463000D01*
X178663000Y-101153000D02*
X172693000Y-101153000D01*
X178663000Y-111273000D02*
X178663000Y-101153000D01*
X178953000Y-100863000D02*
X177703000Y-100863000D01*
X178953000Y-102113000D02*
X178953000Y-100863000D01*
G04 #@! TO.C,L19*
X146375279Y-102490000D02*
X146049721Y-102490000D01*
X146375279Y-103510000D02*
X146049721Y-103510000D01*
G04 #@! TO.C,K2*
X158285000Y-108685000D02*
X158285000Y-102385000D01*
X158985000Y-102385000D02*
X158285000Y-102385000D01*
X158985000Y-108685000D02*
X158285000Y-108685000D01*
X160185000Y-102385000D02*
X161185000Y-102385000D01*
X161185000Y-108685000D02*
X160185000Y-108685000D01*
X162385000Y-102385000D02*
X163385000Y-102385000D01*
X163385000Y-108685000D02*
X162385000Y-108685000D01*
X164585000Y-102385000D02*
X166585000Y-102385000D01*
X166585000Y-105185000D02*
X166585000Y-105885000D01*
X166585000Y-105885000D02*
X167785000Y-105885000D01*
X166585000Y-108685000D02*
X164585000Y-108685000D01*
X166985000Y-105185000D02*
X167385000Y-105885000D01*
X167185000Y-105185000D02*
X167185000Y-104085000D01*
X167185000Y-105885000D02*
X167185000Y-106985000D01*
X167785000Y-102285000D02*
X168585000Y-102285000D01*
X167785000Y-102385000D02*
X168485000Y-102385000D01*
X167785000Y-105185000D02*
X166585000Y-105185000D01*
X167785000Y-105885000D02*
X167785000Y-105185000D01*
X168485000Y-102385000D02*
X168485000Y-108685000D01*
X168485000Y-108685000D02*
X167785000Y-108685000D01*
X168585000Y-102285000D02*
X168585000Y-102985000D01*
G04 #@! TO.C,C49*
X143140580Y-102490000D02*
X142859420Y-102490000D01*
X143140580Y-103510000D02*
X142859420Y-103510000D01*
G04 #@! TO.C,D4*
X174250000Y-144240000D02*
X174250000Y-148250000D01*
X176250000Y-144240000D02*
X174250000Y-144240000D01*
X176250000Y-144240000D02*
X176250000Y-148250000D01*
G04 #@! TO.C,L4*
X131770000Y-115996250D02*
X131770000Y-122586250D01*
X131770000Y-115996250D02*
X137421000Y-115996250D01*
X131770000Y-122586250D02*
X137421000Y-122586250D01*
X140329000Y-115996250D02*
X145980000Y-115996250D01*
X140329000Y-122586250D02*
X145980000Y-122586250D01*
X145980000Y-115996250D02*
X145980000Y-122586250D01*
G04 #@! TO.C,L8*
X116890000Y-124687500D02*
X116890000Y-131277500D01*
X116890000Y-124687500D02*
X122541000Y-124687500D01*
X116890000Y-131277500D02*
X122541000Y-131277500D01*
X125449000Y-124687500D02*
X131100000Y-124687500D01*
X125449000Y-131277500D02*
X131100000Y-131277500D01*
X131100000Y-124687500D02*
X131100000Y-131277500D01*
G04 #@! TO.C,L12*
X101870000Y-133307750D02*
X101870000Y-139897750D01*
X101870000Y-133307750D02*
X107521000Y-133307750D01*
X101870000Y-139897750D02*
X107521000Y-139897750D01*
X110429000Y-133307750D02*
X116080000Y-133307750D01*
X110429000Y-139897750D02*
X116080000Y-139897750D01*
X116080000Y-133307750D02*
X116080000Y-139897750D01*
G04 #@! TO.C,R9*
X166587742Y-143977500D02*
X167062258Y-143977500D01*
X166587742Y-145022500D02*
X167062258Y-145022500D01*
G04 #@! TO.C,K3*
X147055000Y-122487500D02*
X147055000Y-116187500D01*
X147755000Y-116187500D02*
X147055000Y-116187500D01*
X147755000Y-122487500D02*
X147055000Y-122487500D01*
X148955000Y-116187500D02*
X149955000Y-116187500D01*
X149955000Y-122487500D02*
X148955000Y-122487500D01*
X151155000Y-116187500D02*
X152155000Y-116187500D01*
X152155000Y-122487500D02*
X151155000Y-122487500D01*
X153355000Y-116187500D02*
X155355000Y-116187500D01*
X155355000Y-118987500D02*
X155355000Y-119687500D01*
X155355000Y-119687500D02*
X156555000Y-119687500D01*
X155355000Y-122487500D02*
X153355000Y-122487500D01*
X155755000Y-118987500D02*
X156155000Y-119687500D01*
X155955000Y-118987500D02*
X155955000Y-117887500D01*
X155955000Y-119687500D02*
X155955000Y-120787500D01*
X156555000Y-116087500D02*
X157355000Y-116087500D01*
X156555000Y-116187500D02*
X157255000Y-116187500D01*
X156555000Y-118987500D02*
X155355000Y-118987500D01*
X156555000Y-119687500D02*
X156555000Y-118987500D01*
X157255000Y-116187500D02*
X157255000Y-122487500D01*
X157255000Y-122487500D02*
X156555000Y-122487500D01*
X157355000Y-116087500D02*
X157355000Y-116787500D01*
G04 #@! TO.C,R1*
X160492258Y-144250500D02*
X160017742Y-144250500D01*
X160492258Y-145295500D02*
X160017742Y-145295500D01*
G04 #@! TO.C,L13*
X131720000Y-141859000D02*
X131720000Y-148449000D01*
X131720000Y-141859000D02*
X137371000Y-141859000D01*
X131720000Y-148449000D02*
X137371000Y-148449000D01*
X140279000Y-141859000D02*
X145930000Y-141859000D01*
X140279000Y-148449000D02*
X145930000Y-148449000D01*
X145930000Y-141859000D02*
X145930000Y-148449000D01*
D10*
G04 #@! TO.C,U1*
X160630000Y-140550000D02*
X160630000Y-140775000D01*
X160630000Y-143800000D02*
X160630000Y-143575000D01*
X163880000Y-140550000D02*
X160630000Y-140550000D01*
X163880000Y-140550000D02*
X163880000Y-140775000D01*
X163880000Y-143800000D02*
X160630000Y-143800000D01*
X163880000Y-143800000D02*
X163880000Y-143575000D01*
D11*
X164595000Y-143905000D02*
X164115000Y-143905000D01*
X164355000Y-143575000D01*
X164595000Y-143905000D01*
G36*
X164595000Y-143905000D02*
G01*
X164115000Y-143905000D01*
X164355000Y-143575000D01*
X164595000Y-143905000D01*
G37*
G04 #@! TO.C,L14*
X116840000Y-141919000D02*
X116840000Y-148509000D01*
X116840000Y-141919000D02*
X122491000Y-141919000D01*
X116840000Y-148509000D02*
X122491000Y-148509000D01*
X125399000Y-141919000D02*
X131050000Y-141919000D01*
X125399000Y-148509000D02*
X131050000Y-148509000D01*
X131050000Y-141919000D02*
X131050000Y-148509000D01*
G04 #@! TO.C,L5*
X116890000Y-116033750D02*
X116890000Y-122623750D01*
X116890000Y-116033750D02*
X122541000Y-116033750D01*
X116890000Y-122623750D02*
X122541000Y-122623750D01*
X125449000Y-116033750D02*
X131100000Y-116033750D01*
X125449000Y-122623750D02*
X131100000Y-122623750D01*
X131100000Y-116033750D02*
X131100000Y-122623750D01*
G04 #@! TO.C,L18*
X152587221Y-102490000D02*
X152912779Y-102490000D01*
X152587221Y-103510000D02*
X152912779Y-103510000D01*
G04 #@! TO.C,K4*
X147055000Y-131100000D02*
X147055000Y-124800000D01*
X147755000Y-124800000D02*
X147055000Y-124800000D01*
X147755000Y-131100000D02*
X147055000Y-131100000D01*
X148955000Y-124800000D02*
X149955000Y-124800000D01*
X149955000Y-131100000D02*
X148955000Y-131100000D01*
X151155000Y-124800000D02*
X152155000Y-124800000D01*
X152155000Y-131100000D02*
X151155000Y-131100000D01*
X153355000Y-124800000D02*
X155355000Y-124800000D01*
X155355000Y-127600000D02*
X155355000Y-128300000D01*
X155355000Y-128300000D02*
X156555000Y-128300000D01*
X155355000Y-131100000D02*
X153355000Y-131100000D01*
X155755000Y-127600000D02*
X156155000Y-128300000D01*
X155955000Y-127600000D02*
X155955000Y-126500000D01*
X155955000Y-128300000D02*
X155955000Y-129400000D01*
X156555000Y-124700000D02*
X157355000Y-124700000D01*
X156555000Y-124800000D02*
X157255000Y-124800000D01*
X156555000Y-127600000D02*
X155355000Y-127600000D01*
X156555000Y-128300000D02*
X156555000Y-127600000D01*
X157255000Y-124800000D02*
X157255000Y-131100000D01*
X157255000Y-131100000D02*
X156555000Y-131100000D01*
X157355000Y-124700000D02*
X157355000Y-125400000D01*
G04 #@! TO.C,U2*
X160115000Y-135265000D02*
X160840000Y-135265000D01*
X160115000Y-135990000D02*
X160115000Y-135265000D01*
X160115000Y-138760000D02*
X160115000Y-139185000D01*
X160840000Y-139485000D02*
X160355000Y-139485000D01*
X164335000Y-135265000D02*
X163610000Y-135265000D01*
X164335000Y-135990000D02*
X164335000Y-135265000D01*
X164335000Y-138760000D02*
X164335000Y-139485000D01*
X164335000Y-139485000D02*
X163610000Y-139485000D01*
X160115000Y-139485000D02*
X159785000Y-139725000D01*
X159785000Y-139245000D01*
X160115000Y-139485000D01*
G36*
X160115000Y-139485000D02*
G01*
X159785000Y-139725000D01*
X159785000Y-139245000D01*
X160115000Y-139485000D01*
G37*
G04 #@! TO.C,R7*
X168008258Y-111316500D02*
X167533742Y-111316500D01*
X168008258Y-112361500D02*
X167533742Y-112361500D01*
G04 #@! TO.C,C2*
X157905000Y-137305580D02*
X157905000Y-137024420D01*
X158925000Y-137305580D02*
X158925000Y-137024420D01*
G04 #@! TO.C,R8*
X160492258Y-146379500D02*
X160017742Y-146379500D01*
X160492258Y-147424500D02*
X160017742Y-147424500D01*
G04 #@! TO.C,L10*
X131710000Y-133262750D02*
X131710000Y-139852750D01*
X131710000Y-133262750D02*
X137361000Y-133262750D01*
X131710000Y-139852750D02*
X137361000Y-139852750D01*
X140269000Y-133262750D02*
X145920000Y-133262750D01*
X140269000Y-139852750D02*
X145920000Y-139852750D01*
X145920000Y-133262750D02*
X145920000Y-139852750D01*
G04 #@! TD*
%LPC*%
D12*
G04 #@! TO.C,K6*
X155905000Y-142295000D03*
X152705000Y-142295000D03*
X150505000Y-142295000D03*
X148305000Y-142295000D03*
X148305000Y-147375000D03*
X150505000Y-147375000D03*
X152705000Y-147375000D03*
X155905000Y-147375000D03*
G04 #@! TD*
D13*
G04 #@! TO.C,L9*
X109035000Y-125682500D03*
X109035000Y-130252500D03*
G04 #@! TD*
D14*
G04 #@! TO.C,C27*
X170077000Y-111852000D03*
X170077000Y-110302000D03*
G04 #@! TD*
D15*
G04 #@! TO.C,H1*
X104080000Y-103630000D03*
G04 #@! TD*
D16*
G04 #@! TO.C,J8*
X136750000Y-102500000D03*
D17*
X138225000Y-104000000D03*
D16*
X136750000Y-105500000D03*
D17*
X135275000Y-104000000D03*
G04 #@! TD*
D13*
G04 #@! TO.C,L1*
X138945000Y-108420000D03*
X138945000Y-112990000D03*
G04 #@! TD*
D12*
G04 #@! TO.C,K1*
X156005000Y-108045000D03*
X152805000Y-108045000D03*
X150605000Y-108045000D03*
X148405000Y-108045000D03*
X148405000Y-113125000D03*
X150605000Y-113125000D03*
X152805000Y-113125000D03*
X156005000Y-113125000D03*
G04 #@! TD*
D18*
G04 #@! TO.C,L17*
X167485000Y-120615000D03*
X178485000Y-120615000D03*
X167485000Y-114615000D03*
X178485000Y-114615000D03*
G04 #@! TD*
D13*
G04 #@! TO.C,L2*
X123985000Y-108420000D03*
X123985000Y-112990000D03*
G04 #@! TD*
G04 #@! TO.C,L3*
X109105000Y-108420000D03*
X109105000Y-112990000D03*
G04 #@! TD*
D12*
G04 #@! TO.C,K5*
X155895000Y-133732500D03*
X152695000Y-133732500D03*
X150495000Y-133732500D03*
X148295000Y-133732500D03*
X148295000Y-138812500D03*
X150495000Y-138812500D03*
X152695000Y-138812500D03*
X155895000Y-138812500D03*
G04 #@! TD*
D19*
G04 #@! TO.C,U3*
X164830000Y-132830000D03*
X164830000Y-131560000D03*
X164830000Y-130290000D03*
X164830000Y-129020000D03*
X164830000Y-127750000D03*
X164830000Y-126480000D03*
X164830000Y-125210000D03*
X164830000Y-123940000D03*
X159880000Y-123940000D03*
X159880000Y-125210000D03*
X159880000Y-126480000D03*
X159880000Y-127750000D03*
X159880000Y-129020000D03*
X159880000Y-130290000D03*
X159880000Y-131560000D03*
X159880000Y-132830000D03*
G04 #@! TD*
D20*
G04 #@! TO.C,C3*
X162630000Y-144775000D03*
X164180000Y-144775000D03*
G04 #@! TD*
D21*
G04 #@! TO.C,R11*
X177500000Y-146675000D03*
X177500000Y-148325000D03*
G04 #@! TD*
D15*
G04 #@! TO.C,H6*
X182080000Y-152630000D03*
G04 #@! TD*
D22*
G04 #@! TO.C,C47*
X156800000Y-103000000D03*
X155250000Y-103000000D03*
G04 #@! TD*
G04 #@! TO.C,C48*
X150275000Y-103000000D03*
X148725000Y-103000000D03*
G04 #@! TD*
D15*
G04 #@! TO.C,H2*
X124080000Y-103630000D03*
G04 #@! TD*
D23*
G04 #@! TO.C,J3*
X183337500Y-128205000D03*
D24*
X183087500Y-125380000D03*
X183087500Y-131030000D03*
G04 #@! TD*
D13*
G04 #@! TO.C,L6*
X109035000Y-117021250D03*
X109035000Y-121591250D03*
G04 #@! TD*
D25*
G04 #@! TO.C,C6*
X159286500Y-120163000D03*
X163411500Y-120163000D03*
G04 #@! TD*
D26*
G04 #@! TO.C,C26*
X167285000Y-127224000D03*
X167285000Y-128774000D03*
G04 #@! TD*
D13*
G04 #@! TO.C,L15*
X108985000Y-142929000D03*
X108985000Y-147499000D03*
G04 #@! TD*
D15*
G04 #@! TO.C,H4*
X104080000Y-152630000D03*
G04 #@! TD*
G04 #@! TO.C,H5*
X124080000Y-152630000D03*
G04 #@! TD*
D21*
G04 #@! TO.C,R10*
X165750000Y-135500000D03*
X165750000Y-137150000D03*
G04 #@! TD*
D18*
G04 #@! TO.C,L16*
X176075000Y-135345000D03*
X176075000Y-124345000D03*
X170075000Y-135345000D03*
X170075000Y-124345000D03*
G04 #@! TD*
D21*
G04 #@! TO.C,R2*
X167285000Y-130348000D03*
X167285000Y-131998000D03*
G04 #@! TD*
D27*
G04 #@! TO.C,J7*
X174000000Y-141050000D03*
D28*
X172000000Y-141050000D03*
G04 #@! TD*
D15*
G04 #@! TO.C,H3*
X182080000Y-103630000D03*
G04 #@! TD*
D21*
G04 #@! TO.C,R3*
X166023000Y-140929000D03*
X166023000Y-142579000D03*
G04 #@! TD*
D23*
G04 #@! TO.C,J2*
X183337500Y-112395000D03*
D24*
X183087500Y-109570000D03*
X183087500Y-115220000D03*
G04 #@! TD*
D29*
G04 #@! TO.C,R4*
X167610000Y-139255000D03*
X165960000Y-139255000D03*
G04 #@! TD*
D13*
G04 #@! TO.C,L11*
X123935000Y-134325250D03*
X123935000Y-138895250D03*
G04 #@! TD*
G04 #@! TO.C,L7*
X138875000Y-125652500D03*
X138875000Y-130222500D03*
G04 #@! TD*
D30*
G04 #@! TO.C,J6*
X176203000Y-103713000D03*
D31*
X176203000Y-106213000D03*
X176203000Y-108713000D03*
G04 #@! TD*
D32*
G04 #@! TO.C,L19*
X147000000Y-103000000D03*
X145425000Y-103000000D03*
G04 #@! TD*
D12*
G04 #@! TO.C,K2*
X167185000Y-102985000D03*
X163985000Y-102985000D03*
X161785000Y-102985000D03*
X159585000Y-102985000D03*
X159585000Y-108065000D03*
X161785000Y-108065000D03*
X163985000Y-108065000D03*
X167185000Y-108065000D03*
G04 #@! TD*
D22*
G04 #@! TO.C,C49*
X143775000Y-103000000D03*
X142225000Y-103000000D03*
G04 #@! TD*
D33*
G04 #@! TO.C,D4*
X175250000Y-144950000D03*
X175250000Y-148250000D03*
G04 #@! TD*
D13*
G04 #@! TO.C,L4*
X138875000Y-117006250D03*
X138875000Y-121576250D03*
G04 #@! TD*
G04 #@! TO.C,L8*
X123995000Y-125697500D03*
X123995000Y-130267500D03*
G04 #@! TD*
G04 #@! TO.C,L12*
X108975000Y-134317750D03*
X108975000Y-138887750D03*
G04 #@! TD*
D34*
G04 #@! TO.C,R9*
X166000000Y-144500000D03*
X167650000Y-144500000D03*
G04 #@! TD*
D12*
G04 #@! TO.C,K3*
X155955000Y-116787500D03*
X152755000Y-116787500D03*
X150555000Y-116787500D03*
X148355000Y-116787500D03*
X148355000Y-121867500D03*
X150555000Y-121867500D03*
X152755000Y-121867500D03*
X155955000Y-121867500D03*
G04 #@! TD*
D29*
G04 #@! TO.C,R1*
X161080000Y-144773000D03*
X159430000Y-144773000D03*
G04 #@! TD*
D13*
G04 #@! TO.C,L13*
X138825000Y-142869000D03*
X138825000Y-147439000D03*
G04 #@! TD*
D35*
G04 #@! TO.C,U1*
X164405000Y-143175000D03*
X164405000Y-142675000D03*
X164405000Y-142175000D03*
X164405000Y-141675000D03*
X164405000Y-141175000D03*
X160105000Y-141175000D03*
X160105000Y-141675000D03*
X160105000Y-142175000D03*
X160105000Y-142675000D03*
X160105000Y-143175000D03*
G04 #@! TD*
D13*
G04 #@! TO.C,L14*
X123945000Y-142929000D03*
X123945000Y-147499000D03*
G04 #@! TD*
G04 #@! TO.C,L5*
X123995000Y-117043750D03*
X123995000Y-121613750D03*
G04 #@! TD*
D36*
G04 #@! TO.C,L18*
X151962500Y-103000000D03*
X153537500Y-103000000D03*
G04 #@! TD*
D12*
G04 #@! TO.C,K4*
X155955000Y-125400000D03*
X152755000Y-125400000D03*
X150555000Y-125400000D03*
X148355000Y-125400000D03*
X148355000Y-130480000D03*
X150555000Y-130480000D03*
X152755000Y-130480000D03*
X155955000Y-130480000D03*
G04 #@! TD*
D37*
G04 #@! TO.C,U2*
X161225000Y-139312500D03*
X161725000Y-139312500D03*
X162225000Y-139312500D03*
X162725000Y-139312500D03*
X163225000Y-139312500D03*
D38*
X164162500Y-138375000D03*
X164162500Y-137875000D03*
X164162500Y-137375000D03*
X164162500Y-136875000D03*
X164162500Y-136375000D03*
D37*
X163225000Y-135437500D03*
X162725000Y-135437500D03*
X162225000Y-135437500D03*
X161725000Y-135437500D03*
X161225000Y-135437500D03*
D38*
X160287500Y-136375000D03*
X160287500Y-136875000D03*
X160287500Y-137375000D03*
X160287500Y-137875000D03*
X160287500Y-138375000D03*
D39*
X162225000Y-137375000D03*
G04 #@! TD*
D29*
G04 #@! TO.C,R7*
X168596000Y-111839000D03*
X166946000Y-111839000D03*
G04 #@! TD*
D14*
G04 #@! TO.C,C2*
X158415000Y-137940000D03*
X158415000Y-136390000D03*
G04 #@! TD*
D29*
G04 #@! TO.C,R8*
X161080000Y-146902000D03*
X159430000Y-146902000D03*
G04 #@! TD*
D13*
G04 #@! TO.C,L10*
X138815000Y-134272750D03*
X138815000Y-138842750D03*
G04 #@! TD*
D40*
G04 #@! TO.C,J4*
X180200000Y-135753600D03*
D41*
X182740000Y-135753600D03*
X180200000Y-138293600D03*
X182740000Y-138293600D03*
X180200000Y-140833600D03*
X182740000Y-140833600D03*
X180200000Y-143373600D03*
X182740000Y-143373600D03*
X180200000Y-145913600D03*
X182740000Y-145913600D03*
G04 #@! TD*
D42*
G04 #@! TO.C,J5*
X130149000Y-104135000D03*
D43*
X132649000Y-104135000D03*
G04 #@! TD*
D40*
G04 #@! TO.C,J1*
X177180000Y-151330000D03*
D41*
X177180000Y-153870000D03*
X174640000Y-151330000D03*
X174640000Y-153870000D03*
X172100000Y-151330000D03*
X172100000Y-153870000D03*
X169560000Y-151330000D03*
X169560000Y-153870000D03*
X167020000Y-151330000D03*
X167020000Y-153870000D03*
X164480000Y-151330000D03*
X164480000Y-153870000D03*
X161940000Y-151330000D03*
X161940000Y-153870000D03*
X159400000Y-151330000D03*
X159400000Y-153870000D03*
X156860000Y-151330000D03*
X156860000Y-153870000D03*
X154320000Y-151330000D03*
X154320000Y-153870000D03*
X151780000Y-151330000D03*
X151780000Y-153870000D03*
X149240000Y-151330000D03*
X149240000Y-153870000D03*
X146700000Y-151330000D03*
X146700000Y-153870000D03*
X144160000Y-151330000D03*
X144160000Y-153870000D03*
X141620000Y-151330000D03*
X141620000Y-153870000D03*
X139080000Y-151330000D03*
X139080000Y-153870000D03*
X136540000Y-151330000D03*
X136540000Y-153870000D03*
X134000000Y-151330000D03*
X134000000Y-153870000D03*
X131460000Y-151330000D03*
X131460000Y-153870000D03*
X128920000Y-151330000D03*
X128920000Y-153870000D03*
G04 #@! TD*
%LPD*%
M02*
