M48
; DRILL file {KiCad 9.0.0} date 2025-07-18T17:54:26-0500
; FORMAT={3:3/ absolute / metric / suppress leading zeros}
; #@! TF.CreationDate,2025-07-18T17:54:26-05:00
; #@! TF.GenerationSoftware,Kicad,Pcbnew,9.0.0
; #@! TF.FileFunction,MixedPlating,1,4
FMAT,2
METRIC,TZ
; #@! TA.AperFunction,Plated,PTH,ViaDrill
T1C0.400
; #@! TA.AperFunction,Plated,PTH,ComponentDrill
T2C0.700
; #@! TA.AperFunction,Plated,PTH,ComponentDrill
T3C0.750
; #@! TA.AperFunction,Plated,PTH,ComponentDrill
T4C0.950
; #@! TA.AperFunction,Plated,PTH,ComponentDrill
T5C1.000
; #@! TA.AperFunction,Plated,PTH,ComponentDrill
T6C1.500
; #@! TA.AperFunction,NonPlated,NPTH,ComponentDrill
T7C2.700
%
G90
G05
T1
X103124Y-113284
X103124Y-116840
X103124Y-121412
X103124Y-125476
X103124Y-130302
X103124Y-134112
X103124Y-139192
X103124Y-142748
X103124Y-147320
X103378Y-108458
X114554Y-108458
X114554Y-113284
X114554Y-117094
X114554Y-121666
X114554Y-125730
X114554Y-130302
X114554Y-134366
X114554Y-139192
X114554Y-142748
X114554Y-147574
X114554Y-150876
X127000Y-150876
X129540Y-110744
X129540Y-113284
X129540Y-119126
X129540Y-121920
X129540Y-127889
X129540Y-130556
X129540Y-136144
X129540Y-139192
X129540Y-145288
X129540Y-147828
X135225Y-105664
X138225Y-105664
X143775Y-103000
X144250Y-101616
X144250Y-104500
X144399Y-110109
X144399Y-113157
X144399Y-144780
X144399Y-147828
X144526Y-119126
X144526Y-121666
X144526Y-127381
X144526Y-130048
X144526Y-136144
X144526Y-139192
X147000Y-103000
X147250Y-104500
X149606Y-110744
X149606Y-119126
X149606Y-128016
X149606Y-136398
X149606Y-144780
X149750Y-104500
X150622Y-149733
X151963Y-103000
X152500Y-104500
X153250Y-101500
X155250Y-103000
X155250Y-104400
X155702Y-149733
X156750Y-103000
X157000Y-126500
X157013Y-127750
X157250Y-104400
X157738Y-130250
X158415Y-137940
X158440Y-136420
X158500Y-131560
X159286Y-120250
X160000Y-133750
X160000Y-140450
X160528Y-149733
X161036Y-144780
X161080Y-146902
X161500Y-125250
X162000Y-105500
X162306Y-120142
X162854Y-140250
X163080Y-141225
X163195Y-147447
X163322Y-142240
X164120Y-144780
X164750Y-133750
X164860Y-123990
X165500Y-103500
X165500Y-105500
X165735Y-149733
X165750Y-117750
X165750Y-122250
X165750Y-137150
X167280Y-128716
X167386Y-127254
X167386Y-132080
X167610Y-139255
X167650Y-144500
X168275Y-147447
X168656Y-111760
X168750Y-103500
X168750Y-105750
X168750Y-133750
X169000Y-136750
X169000Y-138000
X169000Y-140500
X169000Y-142750
X169000Y-144750
X170180Y-110236
X170180Y-117602
X170180Y-129794
X170815Y-149733
X171000Y-137250
X171000Y-144750
X171196Y-147574
X171500Y-103500
X171500Y-105750
X171750Y-134000
X172000Y-137250
X174000Y-104250
X174000Y-106500
X174000Y-133750
X174000Y-137250
X175500Y-120750
X175514Y-117602
X175514Y-129794
X177546Y-137668
X177546Y-140970
X177546Y-144750
X177750Y-131500
X178054Y-109982
X178500Y-117500
X178500Y-155000
X179324Y-106553
X179324Y-110998
X179750Y-123500
X179750Y-126500
X179750Y-129750
X179750Y-133500
X181000Y-132250
X181102Y-108077
X182910Y-128205
X182960Y-112395
X183088Y-109570
X183088Y-115220
X183088Y-125380
X183088Y-131030
T2
X148295Y-133732
X148295Y-138813
X148305Y-142295
X148305Y-147375
X148355Y-116788
X148355Y-121868
X148355Y-125400
X148355Y-130480
X148405Y-108045
X148405Y-113125
X150495Y-133732
X150495Y-138813
X150505Y-142295
X150505Y-147375
X150555Y-116788
X150555Y-121868
X150555Y-125400
X150555Y-130480
X150605Y-108045
X150605Y-113125
X152695Y-133732
X152695Y-138813
X152705Y-142295
X152705Y-147375
X152755Y-116788
X152755Y-121868
X152755Y-125400
X152755Y-130480
X152805Y-108045
X152805Y-113125
X155895Y-133732
X155895Y-138813
X155905Y-142295
X155905Y-147375
X155955Y-116788
X155955Y-121868
X155955Y-125400
X155955Y-130480
X156005Y-108045
X156005Y-113125
X159585Y-102985
X159585Y-108065
X161785Y-102985
X161785Y-108065
X163985Y-102985
X163985Y-108065
X167185Y-102985
X167185Y-108065
T3
X172000Y-141050
X174000Y-141050
T4
X176203Y-103713
X176203Y-106213
X176203Y-108713
T5
X128920Y-151330
X128920Y-153870
X130149Y-104135
X131460Y-151330
X131460Y-153870
X132649Y-104135
X134000Y-151330
X134000Y-153870
X136540Y-151330
X136540Y-153870
X139080Y-151330
X139080Y-153870
X141620Y-151330
X141620Y-153870
X144160Y-151330
X144160Y-153870
X146700Y-151330
X146700Y-153870
X149240Y-151330
X149240Y-153870
X151780Y-151330
X151780Y-153870
X154320Y-151330
X154320Y-153870
X156860Y-151330
X156860Y-153870
X159400Y-151330
X159400Y-153870
X161940Y-151330
X161940Y-153870
X164480Y-151330
X164480Y-153870
X167020Y-151330
X167020Y-153870
X167485Y-114615
X167485Y-120615
X169560Y-151330
X169560Y-153870
X170075Y-124345
X170075Y-135345
X172100Y-151330
X172100Y-153870
X174640Y-151330
X174640Y-153870
X176075Y-124345
X176075Y-135345
X177180Y-151330
X177180Y-153870
X178485Y-114615
X178485Y-120615
X180200Y-135754
X180200Y-138294
X180200Y-140834
X180200Y-143374
X180200Y-145914
X182740Y-135754
X182740Y-138294
X182740Y-140834
X182740Y-143374
X182740Y-145914
T6
X108975Y-134318
X108975Y-138888
X108985Y-142929
X108985Y-147499
X109035Y-117021
X109035Y-121591
X109035Y-125682
X109035Y-130253
X109105Y-108420
X109105Y-112990
X123935Y-134325
X123935Y-138895
X123945Y-142929
X123945Y-147499
X123985Y-108420
X123985Y-112990
X123995Y-117044
X123995Y-121614
X123995Y-125698
X123995Y-130267
X138815Y-134273
X138815Y-138843
X138825Y-142869
X138825Y-147439
X138875Y-117006
X138875Y-121576
X138875Y-125652
X138875Y-130223
X138945Y-108420
X138945Y-112990
T7
X104080Y-103630
X104080Y-152630
X124080Y-103630
X124080Y-152630
X182080Y-103630
X182080Y-152630
M30
