%TF.GenerationSoftware,KiCad,Pcbnew,9.0.0*%
%TF.CreationDate,2025-07-18T17:54:32-05:00*%
%TF.ProjectId,txfilters,74786669-6c74-4657-9273-2e6b69636164,rev?*%
%TF.SameCoordinates,Original*%
%TF.FileFunction,Soldermask,Top*%
%TF.FilePolarity,Negative*%
%FSLAX46Y46*%
G04 Gerber Fmt 4.6, Leading zero omitted, Abs format (unit mm)*
G04 Created by KiCad (PCBNEW 9.0.0) date 2025-07-18 17:54:32*
%MOMM*%
%LPD*%
G01*
G04 APERTURE LIST*
G04 Aperture macros list*
%AMRoundRect*
0 Rectangle with rounded corners*
0 $1 Rounding radius*
0 $2 $3 $4 $5 $6 $7 $8 $9 X,Y pos of 4 corners*
0 Add a 4 corners polygon primitive as box body*
4,1,4,$2,$3,$4,$5,$6,$7,$8,$9,$2,$3,0*
0 Add four circle primitives for the rounded corners*
1,1,$1+$1,$2,$3*
1,1,$1+$1,$4,$5*
1,1,$1+$1,$6,$7*
1,1,$1+$1,$8,$9*
0 Add four rect primitives between the rounded corners*
20,1,$1+$1,$2,$3,$4,$5,0*
20,1,$1+$1,$4,$5,$6,$7,0*
20,1,$1+$1,$6,$7,$8,$9,0*
20,1,$1+$1,$8,$9,$2,$3,0*%
G04 Aperture macros list end*
%ADD10C,1.400000*%
%ADD11C,3.000000*%
%ADD12RoundRect,0.225000X0.250000X-0.225000X0.250000X0.225000X-0.250000X0.225000X-0.250000X-0.225000X0*%
%ADD13C,2.700000*%
%ADD14RoundRect,0.100000X-0.400000X-0.400000X0.400000X-0.400000X0.400000X0.400000X-0.400000X0.400000X0*%
%ADD15RoundRect,0.105000X-0.420000X-0.995000X0.420000X-0.995000X0.420000X0.995000X-0.420000X0.995000X0*%
%ADD16C,2.000000*%
%ADD17RoundRect,0.150000X0.825000X0.150000X-0.825000X0.150000X-0.825000X-0.150000X0.825000X-0.150000X0*%
%ADD18RoundRect,0.225000X-0.225000X-0.250000X0.225000X-0.250000X0.225000X0.250000X-0.225000X0.250000X0*%
%ADD19RoundRect,0.200000X-0.275000X0.200000X-0.275000X-0.200000X0.275000X-0.200000X0.275000X0.200000X0*%
%ADD20RoundRect,0.225000X0.225000X0.250000X-0.225000X0.250000X-0.225000X-0.250000X0.225000X-0.250000X0*%
%ADD21RoundRect,0.250000X1.350000X-0.385000X1.350000X0.385000X-1.350000X0.385000X-1.350000X-0.385000X0*%
%ADD22RoundRect,0.250000X1.600000X-0.425000X1.600000X0.425000X-1.600000X0.425000X-1.600000X-0.425000X0*%
%ADD23RoundRect,0.250000X-1.137500X-0.550000X1.137500X-0.550000X1.137500X0.550000X-1.137500X0.550000X0*%
%ADD24RoundRect,0.225000X-0.250000X0.225000X-0.250000X-0.225000X0.250000X-0.225000X0.250000X0.225000X0*%
%ADD25RoundRect,0.250000X0.350000X0.625000X-0.350000X0.625000X-0.350000X-0.625000X0.350000X-0.625000X0*%
%ADD26O,1.200000X1.750000*%
%ADD27RoundRect,0.200000X0.200000X0.275000X-0.200000X0.275000X-0.200000X-0.275000X0.200000X-0.275000X0*%
%ADD28RoundRect,0.250000X-0.725000X0.600000X-0.725000X-0.600000X0.725000X-0.600000X0.725000X0.600000X0*%
%ADD29O,1.950000X1.700000*%
%ADD30RoundRect,0.218750X0.218750X0.256250X-0.218750X0.256250X-0.218750X-0.256250X0.218750X-0.256250X0*%
%ADD31RoundRect,0.225000X-0.375000X0.225000X-0.375000X-0.225000X0.375000X-0.225000X0.375000X0.225000X0*%
%ADD32RoundRect,0.200000X-0.200000X-0.275000X0.200000X-0.275000X0.200000X0.275000X-0.200000X0.275000X0*%
%ADD33R,1.100000X0.250000*%
%ADD34RoundRect,0.218750X-0.218750X-0.256250X0.218750X-0.256250X0.218750X0.256250X-0.218750X0.256250X0*%
%ADD35RoundRect,0.062500X0.062500X-0.350000X0.062500X0.350000X-0.062500X0.350000X-0.062500X-0.350000X0*%
%ADD36RoundRect,0.062500X0.350000X-0.062500X0.350000X0.062500X-0.350000X0.062500X-0.350000X-0.062500X0*%
%ADD37R,2.500000X2.500000*%
%ADD38R,1.700000X1.700000*%
%ADD39O,1.700000X1.700000*%
%ADD40RoundRect,0.250000X-0.600000X-0.750000X0.600000X-0.750000X0.600000X0.750000X-0.600000X0.750000X0*%
%ADD41O,1.700000X2.000000*%
G04 APERTURE END LIST*
D10*
%TO.C,K6*%
X155905000Y-142295000D03*
X152705000Y-142295000D03*
X150505000Y-142295000D03*
X148305000Y-142295000D03*
X148305000Y-147375000D03*
X150505000Y-147375000D03*
X152705000Y-147375000D03*
X155905000Y-147375000D03*
%TD*%
D11*
%TO.C,L9*%
X109035000Y-125682500D03*
X109035000Y-130252500D03*
%TD*%
D12*
%TO.C,C27*%
X170077000Y-111852000D03*
X170077000Y-110302000D03*
%TD*%
D13*
%TO.C,H1*%
X104080000Y-103630000D03*
%TD*%
D14*
%TO.C,J8*%
X136750000Y-102500000D03*
D15*
X138225000Y-104000000D03*
D14*
X136750000Y-105500000D03*
D15*
X135275000Y-104000000D03*
%TD*%
D11*
%TO.C,L1*%
X138945000Y-108420000D03*
X138945000Y-112990000D03*
%TD*%
D10*
%TO.C,K1*%
X156005000Y-108045000D03*
X152805000Y-108045000D03*
X150605000Y-108045000D03*
X148405000Y-108045000D03*
X148405000Y-113125000D03*
X150605000Y-113125000D03*
X152805000Y-113125000D03*
X156005000Y-113125000D03*
%TD*%
D16*
%TO.C,L17*%
X167485000Y-120615000D03*
X178485000Y-120615000D03*
X167485000Y-114615000D03*
X178485000Y-114615000D03*
%TD*%
D11*
%TO.C,L2*%
X123985000Y-108420000D03*
X123985000Y-112990000D03*
%TD*%
%TO.C,L3*%
X109105000Y-108420000D03*
X109105000Y-112990000D03*
%TD*%
D10*
%TO.C,K5*%
X155895000Y-133732500D03*
X152695000Y-133732500D03*
X150495000Y-133732500D03*
X148295000Y-133732500D03*
X148295000Y-138812500D03*
X150495000Y-138812500D03*
X152695000Y-138812500D03*
X155895000Y-138812500D03*
%TD*%
D17*
%TO.C,U3*%
X164830000Y-132830000D03*
X164830000Y-131560000D03*
X164830000Y-130290000D03*
X164830000Y-129020000D03*
X164830000Y-127750000D03*
X164830000Y-126480000D03*
X164830000Y-125210000D03*
X164830000Y-123940000D03*
X159880000Y-123940000D03*
X159880000Y-125210000D03*
X159880000Y-126480000D03*
X159880000Y-127750000D03*
X159880000Y-129020000D03*
X159880000Y-130290000D03*
X159880000Y-131560000D03*
X159880000Y-132830000D03*
%TD*%
D18*
%TO.C,C3*%
X162630000Y-144775000D03*
X164180000Y-144775000D03*
%TD*%
D19*
%TO.C,R11*%
X177500000Y-146675000D03*
X177500000Y-148325000D03*
%TD*%
D13*
%TO.C,H6*%
X182080000Y-152630000D03*
%TD*%
D20*
%TO.C,C47*%
X156800000Y-103000000D03*
X155250000Y-103000000D03*
%TD*%
%TO.C,C48*%
X150275000Y-103000000D03*
X148725000Y-103000000D03*
%TD*%
D13*
%TO.C,H2*%
X124080000Y-103630000D03*
%TD*%
D21*
%TO.C,J3*%
X183337500Y-128205000D03*
D22*
X183087500Y-125380000D03*
X183087500Y-131030000D03*
%TD*%
D11*
%TO.C,L6*%
X109035000Y-117021250D03*
X109035000Y-121591250D03*
%TD*%
D23*
%TO.C,C6*%
X159286500Y-120163000D03*
X163411500Y-120163000D03*
%TD*%
D24*
%TO.C,C26*%
X167285000Y-127224000D03*
X167285000Y-128774000D03*
%TD*%
D11*
%TO.C,L15*%
X108985000Y-142929000D03*
X108985000Y-147499000D03*
%TD*%
D13*
%TO.C,H4*%
X104080000Y-152630000D03*
%TD*%
%TO.C,H5*%
X124080000Y-152630000D03*
%TD*%
D19*
%TO.C,R10*%
X165750000Y-135500000D03*
X165750000Y-137150000D03*
%TD*%
D16*
%TO.C,L16*%
X176075000Y-135345000D03*
X176075000Y-124345000D03*
X170075000Y-135345000D03*
X170075000Y-124345000D03*
%TD*%
D19*
%TO.C,R2*%
X167285000Y-130348000D03*
X167285000Y-131998000D03*
%TD*%
D25*
%TO.C,J7*%
X174000000Y-141050000D03*
D26*
X172000000Y-141050000D03*
%TD*%
D13*
%TO.C,H3*%
X182080000Y-103630000D03*
%TD*%
D19*
%TO.C,R3*%
X166023000Y-140929000D03*
X166023000Y-142579000D03*
%TD*%
D21*
%TO.C,J2*%
X183337500Y-112395000D03*
D22*
X183087500Y-109570000D03*
X183087500Y-115220000D03*
%TD*%
D27*
%TO.C,R4*%
X167610000Y-139255000D03*
X165960000Y-139255000D03*
%TD*%
D11*
%TO.C,L11*%
X123935000Y-134325250D03*
X123935000Y-138895250D03*
%TD*%
%TO.C,L7*%
X138875000Y-125652500D03*
X138875000Y-130222500D03*
%TD*%
D28*
%TO.C,J6*%
X176203000Y-103713000D03*
D29*
X176203000Y-106213000D03*
X176203000Y-108713000D03*
%TD*%
D30*
%TO.C,L19*%
X147000000Y-103000000D03*
X145425000Y-103000000D03*
%TD*%
D10*
%TO.C,K2*%
X167185000Y-102985000D03*
X163985000Y-102985000D03*
X161785000Y-102985000D03*
X159585000Y-102985000D03*
X159585000Y-108065000D03*
X161785000Y-108065000D03*
X163985000Y-108065000D03*
X167185000Y-108065000D03*
%TD*%
D20*
%TO.C,C49*%
X143775000Y-103000000D03*
X142225000Y-103000000D03*
%TD*%
D31*
%TO.C,D4*%
X175250000Y-144950000D03*
X175250000Y-148250000D03*
%TD*%
D11*
%TO.C,L4*%
X138875000Y-117006250D03*
X138875000Y-121576250D03*
%TD*%
%TO.C,L8*%
X123995000Y-125697500D03*
X123995000Y-130267500D03*
%TD*%
%TO.C,L12*%
X108975000Y-134317750D03*
X108975000Y-138887750D03*
%TD*%
D32*
%TO.C,R9*%
X166000000Y-144500000D03*
X167650000Y-144500000D03*
%TD*%
D10*
%TO.C,K3*%
X155955000Y-116787500D03*
X152755000Y-116787500D03*
X150555000Y-116787500D03*
X148355000Y-116787500D03*
X148355000Y-121867500D03*
X150555000Y-121867500D03*
X152755000Y-121867500D03*
X155955000Y-121867500D03*
%TD*%
D27*
%TO.C,R1*%
X161080000Y-144773000D03*
X159430000Y-144773000D03*
%TD*%
D11*
%TO.C,L13*%
X138825000Y-142869000D03*
X138825000Y-147439000D03*
%TD*%
D33*
%TO.C,U1*%
X164405000Y-143175000D03*
X164405000Y-142675000D03*
X164405000Y-142175000D03*
X164405000Y-141675000D03*
X164405000Y-141175000D03*
X160105000Y-141175000D03*
X160105000Y-141675000D03*
X160105000Y-142175000D03*
X160105000Y-142675000D03*
X160105000Y-143175000D03*
%TD*%
D11*
%TO.C,L14*%
X123945000Y-142929000D03*
X123945000Y-147499000D03*
%TD*%
%TO.C,L5*%
X123995000Y-117043750D03*
X123995000Y-121613750D03*
%TD*%
D34*
%TO.C,L18*%
X151962500Y-103000000D03*
X153537500Y-103000000D03*
%TD*%
D10*
%TO.C,K4*%
X155955000Y-125400000D03*
X152755000Y-125400000D03*
X150555000Y-125400000D03*
X148355000Y-125400000D03*
X148355000Y-130480000D03*
X150555000Y-130480000D03*
X152755000Y-130480000D03*
X155955000Y-130480000D03*
%TD*%
D35*
%TO.C,U2*%
X161225000Y-139312500D03*
X161725000Y-139312500D03*
X162225000Y-139312500D03*
X162725000Y-139312500D03*
X163225000Y-139312500D03*
D36*
X164162500Y-138375000D03*
X164162500Y-137875000D03*
X164162500Y-137375000D03*
X164162500Y-136875000D03*
X164162500Y-136375000D03*
D35*
X163225000Y-135437500D03*
X162725000Y-135437500D03*
X162225000Y-135437500D03*
X161725000Y-135437500D03*
X161225000Y-135437500D03*
D36*
X160287500Y-136375000D03*
X160287500Y-136875000D03*
X160287500Y-137375000D03*
X160287500Y-137875000D03*
X160287500Y-138375000D03*
D37*
X162225000Y-137375000D03*
%TD*%
D27*
%TO.C,R7*%
X168596000Y-111839000D03*
X166946000Y-111839000D03*
%TD*%
D12*
%TO.C,C2*%
X158415000Y-137940000D03*
X158415000Y-136390000D03*
%TD*%
D27*
%TO.C,R8*%
X161080000Y-146902000D03*
X159430000Y-146902000D03*
%TD*%
D11*
%TO.C,L10*%
X138815000Y-134272750D03*
X138815000Y-138842750D03*
%TD*%
D38*
%TO.C,J4*%
X180200000Y-135753600D03*
D39*
X182740000Y-135753600D03*
X180200000Y-138293600D03*
X182740000Y-138293600D03*
X180200000Y-140833600D03*
X182740000Y-140833600D03*
X180200000Y-143373600D03*
X182740000Y-143373600D03*
X180200000Y-145913600D03*
X182740000Y-145913600D03*
%TD*%
D40*
%TO.C,J5*%
X130149000Y-104135000D03*
D41*
X132649000Y-104135000D03*
%TD*%
D38*
%TO.C,J1*%
X177180000Y-151330000D03*
D39*
X177180000Y-153870000D03*
X174640000Y-151330000D03*
X174640000Y-153870000D03*
X172100000Y-151330000D03*
X172100000Y-153870000D03*
X169560000Y-151330000D03*
X169560000Y-153870000D03*
X167020000Y-151330000D03*
X167020000Y-153870000D03*
X164480000Y-151330000D03*
X164480000Y-153870000D03*
X161940000Y-151330000D03*
X161940000Y-153870000D03*
X159400000Y-151330000D03*
X159400000Y-153870000D03*
X156860000Y-151330000D03*
X156860000Y-153870000D03*
X154320000Y-151330000D03*
X154320000Y-153870000D03*
X151780000Y-151330000D03*
X151780000Y-153870000D03*
X149240000Y-151330000D03*
X149240000Y-153870000D03*
X146700000Y-151330000D03*
X146700000Y-153870000D03*
X144160000Y-151330000D03*
X144160000Y-153870000D03*
X141620000Y-151330000D03*
X141620000Y-153870000D03*
X139080000Y-151330000D03*
X139080000Y-153870000D03*
X136540000Y-151330000D03*
X136540000Y-153870000D03*
X134000000Y-151330000D03*
X134000000Y-153870000D03*
X131460000Y-151330000D03*
X131460000Y-153870000D03*
X128920000Y-151330000D03*
X128920000Y-153870000D03*
%TD*%
M02*
